<svg width="810" height="416" viewBox="0 0 810 416" fill="none" xmlns="http://www.w3.org/2000/svg">
<g clip-path="url(#clip0_6935_8230)">
<rect x="174.5" y="79.5" width="493" height="257" fill="#FAC699" stroke="#F27100"/>
<path d="M131 36V380H711" stroke="#7A7A7A"/>
<path d="M732.641 378.578V379.562H723.312V374.203H732.453V375.219H724.562V378.578H732.641ZM734.266 381.406V382.406H728.469V387.219H727.266V382.406H721.547V381.406H734.266ZM738.844 375.062C738.828 377.984 738.422 381.266 736.391 383.953L735.422 383.391C737.164 381.211 737.68 378.641 737.781 376.078H735.703V375.062H738.844ZM741.922 375.062C741.914 376.195 741.891 377.5 741.719 378.844H743.562V373.75H744.734V386.562H743.562V379.859H741.562C741.242 381.594 740.633 383.352 739.5 384.875L738.547 384.297C740.469 381.844 740.789 378.672 740.844 376.078H739.281V375.062H741.922ZM747.344 373.375V387.266H746.156V373.375H747.344ZM754.094 381.688C754.109 378.734 754.906 376.281 756.344 374.203H757.531C756.469 375.75 755.484 378.906 755.484 381.688C755.484 384.469 756.469 387.641 757.531 389.188H756.344C754.906 387.094 754.109 384.641 754.094 381.688ZM759.203 386V377.516H760.5V378.844H760.609C760.969 377.938 761.781 377.406 762.891 377.406C764 377.406 764.75 377.938 765.156 378.844H765.25C765.688 377.969 766.578 377.406 767.797 377.406C769.312 377.406 770.391 378.328 770.391 380.328V386H769.047V380.344C769.047 379.094 768.25 378.609 767.328 378.609C766.141 378.609 765.469 379.406 765.469 380.484V386H764.109V380.203C764.109 379.25 763.422 378.609 762.453 378.609C761.438 378.609 760.547 379.469 760.547 380.703V386H759.203ZM772.547 386V377.516H773.844V378.844H773.953C774.312 377.938 775.125 377.406 776.234 377.406C777.344 377.406 778.094 377.938 778.5 378.844H778.594C779.031 377.969 779.922 377.406 781.141 377.406C782.656 377.406 783.734 378.328 783.734 380.328V386H782.391V380.344C782.391 379.094 781.594 378.609 780.672 378.609C779.484 378.609 778.812 379.406 778.812 380.484V386H777.453V380.203C777.453 379.25 776.766 378.609 775.797 378.609C774.781 378.609 773.891 379.469 773.891 380.703V386H772.547ZM788.844 381.688C788.828 384.641 788.031 387.094 786.594 389.188H785.406C786.469 387.641 787.453 384.469 787.453 381.688C787.453 378.906 786.469 375.75 785.406 374.203H786.594C788.031 376.281 788.828 378.734 788.844 381.688Z" fill="#4E4E4E"/>
<path d="M115.016 6.89062V7.90625H112.875V10.9531H114.969V11.9375H110.5V13.6562H116.219V14.6562H103.562V13.6562H109.281V11.9375H104.797V10.9531H106.891V7.90625H104.75V6.89062H115.016ZM114.656 16.0469V20.2656H113.422V17.0625H104.969V16.0469H114.656ZM108.109 10.9531H111.656V7.90625H108.109V10.9531ZM122.266 14.6875C122.281 11.7344 123.078 9.28125 124.516 7.20312H125.703C124.641 8.75 123.656 11.9062 123.656 14.6875C123.656 17.4688 124.641 20.6406 125.703 22.1875H124.516C123.078 20.0938 122.281 17.6406 122.266 14.6875ZM127.375 19V10.5156H128.672V11.8438H128.781C129.141 10.9375 129.953 10.4062 131.062 10.4062C132.172 10.4062 132.922 10.9375 133.328 11.8438H133.422C133.859 10.9688 134.75 10.4062 135.969 10.4062C137.484 10.4062 138.562 11.3281 138.562 13.3281V19H137.219V13.3438C137.219 12.0938 136.422 11.6094 135.5 11.6094C134.312 11.6094 133.641 12.4062 133.641 13.4844V19H132.281V13.2031C132.281 12.25 131.594 11.6094 130.625 11.6094C129.609 11.6094 128.719 12.4688 128.719 13.7031V19H127.375ZM140.719 19V10.5156H142.016V11.8438H142.125C142.484 10.9375 143.297 10.4062 144.406 10.4062C145.516 10.4062 146.266 10.9375 146.672 11.8438H146.766C147.203 10.9688 148.094 10.4062 149.312 10.4062C150.828 10.4062 151.906 11.3281 151.906 13.3281V19H150.562V13.3438C150.562 12.0938 149.766 11.6094 148.844 11.6094C147.656 11.6094 146.984 12.4062 146.984 13.4844V19H145.625V13.2031C145.625 12.25 144.938 11.6094 143.969 11.6094C142.953 11.6094 142.062 12.4688 142.062 13.7031V19H140.719ZM157.016 14.6875C157 17.6406 156.203 20.0938 154.766 22.1875H153.578C154.641 20.6406 155.625 17.4688 155.625 14.6875C155.625 11.9062 154.641 8.75 153.578 7.20312H154.766C156.203 9.28125 157 11.7344 157.016 14.6875Z" fill="#4E4E4E"/>
<path d="M87.2969 86.1758C84.9414 86.1582 82.4805 84.7695 82.4805 80.0586C82.4805 75.6289 84.3965 73.0977 87.4551 73.0977C89.793 73.0977 91.4277 74.5566 91.7266 76.5781H89.8105C89.5645 75.541 88.7383 74.7852 87.4551 74.7852C85.4863 74.7852 84.3438 76.5078 84.3438 79.373H84.4844C85.1699 78.3008 86.3652 77.6504 87.7539 77.6504C90.0215 77.6504 91.8496 79.3906 91.8496 81.834C91.8496 84.2949 90.0391 86.1934 87.2969 86.1758ZM87.2793 84.5586C88.8262 84.5586 89.9688 83.3633 89.9688 81.8691C89.9688 80.4102 88.8613 79.2324 87.332 79.2324C85.7676 79.2324 84.5898 80.4629 84.5723 81.8867C84.5898 83.293 85.7148 84.5586 87.2793 84.5586ZM98.3359 86.1758C95.3828 86.1758 93.6602 83.8027 93.6602 79.6367C93.6602 75.5059 95.418 73.0977 98.3359 73.0977C101.254 73.0977 103.012 75.5059 103.012 79.6367C103.012 83.8027 101.271 86.1758 98.3359 86.1758ZM98.3359 84.5059C100.059 84.5059 101.078 82.8184 101.078 79.6367C101.078 76.4727 100.041 74.7324 98.3359 74.7324C96.6309 74.7324 95.5938 76.4727 95.5938 79.6367C95.5938 82.8184 96.6133 84.5059 98.3359 84.5059ZM109.445 86.1758C106.492 86.1758 104.77 83.8027 104.77 79.6367C104.77 75.5059 106.527 73.0977 109.445 73.0977C112.363 73.0977 114.121 75.5059 114.121 79.6367C114.121 83.8027 112.381 86.1758 109.445 86.1758ZM109.445 84.5059C111.168 84.5059 112.188 82.8184 112.188 79.6367C112.188 76.4727 111.15 74.7324 109.445 74.7324C107.74 74.7324 106.703 76.4727 106.703 79.6367C106.703 82.8184 107.723 84.5059 109.445 84.5059Z" fill="black"/>
<path d="M131 79.5H123" stroke="#7A7A7A"/>
<path d="M90.6719 330.273V343H88.7207V332.207H88.6504L85.6094 334.193V332.348L88.7734 330.273H90.6719ZM98.3359 343.176C95.3828 343.176 93.6602 340.803 93.6602 336.637C93.6602 332.506 95.418 330.098 98.3359 330.098C101.254 330.098 103.012 332.506 103.012 336.637C103.012 340.803 101.271 343.176 98.3359 343.176ZM98.3359 341.506C100.059 341.506 101.078 339.818 101.078 336.637C101.078 333.473 100.041 331.732 98.3359 331.732C96.6309 331.732 95.5938 333.473 95.5938 336.637C95.5938 339.818 96.6133 341.506 98.3359 341.506ZM109.445 343.176C106.492 343.176 104.77 340.803 104.77 336.637C104.77 332.506 106.527 330.098 109.445 330.098C112.363 330.098 114.121 332.506 114.121 336.637C114.121 340.803 112.381 343.176 109.445 343.176ZM109.445 341.506C111.168 341.506 112.188 339.818 112.188 336.637C112.188 333.473 111.15 331.732 109.445 331.732C107.74 331.732 106.703 333.473 106.703 336.637C106.703 339.818 107.723 341.506 109.445 341.506Z" fill="black"/>
<path d="M131 336.5H123" stroke="#7A7A7A"/>
<path d="M174.5 388L174.5 380" stroke="#7A7A7A"/>
<path d="M169.06 396.273V409H167.108V398.207H167.038L163.997 400.193V398.348L167.161 396.273H169.06ZM172.821 409.123C172.136 409.123 171.556 408.561 171.573 407.875C171.556 407.189 172.136 406.627 172.821 406.627C173.489 406.627 174.069 407.189 174.069 407.875C174.069 408.561 173.489 409.123 172.821 409.123ZM176.319 409V407.594L180.731 403.146C182.12 401.688 182.823 400.879 182.823 399.771C182.823 398.523 181.804 397.715 180.468 397.715C179.062 397.715 178.147 398.611 178.147 399.965H176.319C176.302 397.645 178.077 396.098 180.503 396.098C182.964 396.098 184.651 397.645 184.669 399.719C184.651 401.143 183.983 402.268 181.593 404.623L179.009 407.242V407.348H184.88V409H176.319Z" fill="black"/>
<path d="M667.5 388L667.5 380" stroke="#7A7A7A"/>
<path d="M660.214 409.176C657.858 409.158 655.397 407.77 655.397 403.059C655.397 398.629 657.313 396.098 660.372 396.098C662.71 396.098 664.345 397.557 664.644 399.578H662.728C662.481 398.541 661.655 397.785 660.372 397.785C658.403 397.785 657.261 399.508 657.261 402.373H657.401C658.087 401.301 659.282 400.65 660.671 400.65C662.938 400.65 664.767 402.391 664.767 404.834C664.767 407.295 662.956 409.193 660.214 409.176ZM660.196 407.559C661.743 407.559 662.886 406.363 662.886 404.869C662.886 403.41 661.778 402.232 660.249 402.232C658.685 402.232 657.507 403.463 657.489 404.887C657.507 406.293 658.632 407.559 660.196 407.559ZM667.509 409.123C666.823 409.123 666.243 408.561 666.261 407.875C666.243 407.189 666.823 406.627 667.509 406.627C668.177 406.627 668.757 407.189 668.757 407.875C668.757 408.561 668.177 409.123 667.509 409.123ZM674.962 409.176C672.009 409.176 670.286 406.803 670.286 402.637C670.286 398.506 672.044 396.098 674.962 396.098C677.88 396.098 679.638 398.506 679.638 402.637C679.638 406.803 677.897 409.176 674.962 409.176ZM674.962 407.506C676.685 407.506 677.704 405.818 677.704 402.637C677.704 399.473 676.667 397.732 674.962 397.732C673.257 397.732 672.22 399.473 672.22 402.637C672.22 405.818 673.239 407.506 674.962 407.506Z" fill="black"/>
<line x1="174.5" y1="337" x2="174.5" y2="379" stroke="#A7A7A7" stroke-dasharray="2 2"/>
<line x1="667.5" y1="337" x2="667.5" y2="379" stroke="#A7A7A7" stroke-dasharray="2 2"/>
<line x1="132" y1="79.5" x2="174" y2="79.5" stroke="#A7A7A7" stroke-dasharray="2 2"/>
<line x1="132" y1="336.5" x2="174" y2="336.5" stroke="#A7A7A7" stroke-dasharray="2 2"/>
</g>
<defs>
<clipPath id="clip0_6935_8230">
<rect width="810" height="416" fill="white"/>
</clipPath>
</defs>
</svg>
