<svg width="810" height="416" viewBox="0 0 810 416" fill="none" xmlns="http://www.w3.org/2000/svg">
<g clip-path="url(#clip0_6935_8194)">
<rect x="174.5" y="79.5" width="493" height="257" fill="#FAC699" stroke="#F27100"/>
<path d="M131 36V380H711" stroke="#7A7A7A"/>
<path d="M732.641 378.578V379.562H723.312V374.203H732.453V375.219H724.562V378.578H732.641ZM734.266 381.406V382.406H728.469V387.219H727.266V382.406H721.547V381.406H734.266ZM738.844 375.062C738.828 377.984 738.422 381.266 736.391 383.953L735.422 383.391C737.164 381.211 737.68 378.641 737.781 376.078H735.703V375.062H738.844ZM741.922 375.062C741.914 376.195 741.891 377.5 741.719 378.844H743.562V373.75H744.734V386.562H743.562V379.859H741.562C741.242 381.594 740.633 383.352 739.5 384.875L738.547 384.297C740.469 381.844 740.789 378.672 740.844 376.078H739.281V375.062H741.922ZM747.344 373.375V387.266H746.156V373.375H747.344ZM754.094 381.688C754.109 378.734 754.906 376.281 756.344 374.203H757.531C756.469 375.75 755.484 378.906 755.484 381.688C755.484 384.469 756.469 387.641 757.531 389.188H756.344C754.906 387.094 754.109 384.641 754.094 381.688ZM759.203 386V377.516H760.5V378.844H760.609C760.969 377.938 761.781 377.406 762.891 377.406C764 377.406 764.75 377.938 765.156 378.844H765.25C765.688 377.969 766.578 377.406 767.797 377.406C769.312 377.406 770.391 378.328 770.391 380.328V386H769.047V380.344C769.047 379.094 768.25 378.609 767.328 378.609C766.141 378.609 765.469 379.406 765.469 380.484V386H764.109V380.203C764.109 379.25 763.422 378.609 762.453 378.609C761.438 378.609 760.547 379.469 760.547 380.703V386H759.203ZM772.547 386V377.516H773.844V378.844H773.953C774.312 377.938 775.125 377.406 776.234 377.406C777.344 377.406 778.094 377.938 778.5 378.844H778.594C779.031 377.969 779.922 377.406 781.141 377.406C782.656 377.406 783.734 378.328 783.734 380.328V386H782.391V380.344C782.391 379.094 781.594 378.609 780.672 378.609C779.484 378.609 778.812 379.406 778.812 380.484V386H777.453V380.203C777.453 379.25 776.766 378.609 775.797 378.609C774.781 378.609 773.891 379.469 773.891 380.703V386H772.547ZM788.844 381.688C788.828 384.641 788.031 387.094 786.594 389.188H785.406C786.469 387.641 787.453 384.469 787.453 381.688C787.453 378.906 786.469 375.75 785.406 374.203H786.594C788.031 376.281 788.828 378.734 788.844 381.688Z" fill="#4E4E4E"/>
<path d="M115.016 6.89062V7.90625H112.875V10.9531H114.969V11.9375H110.5V13.6562H116.219V14.6562H103.562V13.6562H109.281V11.9375H104.797V10.9531H106.891V7.90625H104.75V6.89062H115.016ZM114.656 16.0469V20.2656H113.422V17.0625H104.969V16.0469H114.656ZM108.109 10.9531H111.656V7.90625H108.109V10.9531ZM122.266 14.6875C122.281 11.7344 123.078 9.28125 124.516 7.20312H125.703C124.641 8.75 123.656 11.9062 123.656 14.6875C123.656 17.4688 124.641 20.6406 125.703 22.1875H124.516C123.078 20.0938 122.281 17.6406 122.266 14.6875ZM127.375 19V10.5156H128.672V11.8438H128.781C129.141 10.9375 129.953 10.4062 131.062 10.4062C132.172 10.4062 132.922 10.9375 133.328 11.8438H133.422C133.859 10.9688 134.75 10.4062 135.969 10.4062C137.484 10.4062 138.562 11.3281 138.562 13.3281V19H137.219V13.3438C137.219 12.0938 136.422 11.6094 135.5 11.6094C134.312 11.6094 133.641 12.4062 133.641 13.4844V19H132.281V13.2031C132.281 12.25 131.594 11.6094 130.625 11.6094C129.609 11.6094 128.719 12.4688 128.719 13.7031V19H127.375ZM140.719 19V10.5156H142.016V11.8438H142.125C142.484 10.9375 143.297 10.4062 144.406 10.4062C145.516 10.4062 146.266 10.9375 146.672 11.8438H146.766C147.203 10.9688 148.094 10.4062 149.312 10.4062C150.828 10.4062 151.906 11.3281 151.906 13.3281V19H150.562V13.3438C150.562 12.0938 149.766 11.6094 148.844 11.6094C147.656 11.6094 146.984 12.4062 146.984 13.4844V19H145.625V13.2031C145.625 12.25 144.938 11.6094 143.969 11.6094C142.953 11.6094 142.062 12.4688 142.062 13.7031V19H140.719ZM157.016 14.6875C157 17.6406 156.203 20.0938 154.766 22.1875H153.578C154.641 20.6406 155.625 17.4688 155.625 14.6875C155.625 11.9062 154.641 8.75 153.578 7.20312H154.766C156.203 9.28125 157 11.7344 157.016 14.6875Z" fill="#4E4E4E"/>
<path d="M98.5996 86.1758C96.2441 86.1582 93.7832 84.7695 93.7832 80.0586C93.7832 75.6289 95.6992 73.0977 98.7578 73.0977C101.096 73.0977 102.73 74.5566 103.029 76.5781H101.113C100.867 75.541 100.041 74.7852 98.7578 74.7852C96.7891 74.7852 95.6465 76.5078 95.6465 79.373H95.7871C96.4727 78.3008 97.668 77.6504 99.0566 77.6504C101.324 77.6504 103.152 79.3906 103.152 81.834C103.152 84.2949 101.342 86.1934 98.5996 86.1758ZM98.582 84.5586C100.129 84.5586 101.271 83.3633 101.271 81.8691C101.271 80.4102 100.164 79.2324 98.6348 79.2324C97.0703 79.2324 95.8926 80.4629 95.875 81.8867C95.8926 83.293 97.0176 84.5586 98.582 84.5586ZM109.533 86.1758C107.125 86.1758 105.314 84.6992 105.227 82.6777H107.107C107.213 83.7676 108.25 84.5586 109.533 84.5586C111.08 84.5586 112.188 83.4336 112.188 81.9219C112.188 80.375 111.045 79.25 109.445 79.2324C108.426 79.2324 107.652 79.5664 107.213 80.3574H105.385L106.211 73.2734H113.418V74.9258H107.811L107.389 78.4941H107.512C108.039 77.9844 108.936 77.6328 109.902 77.6328C112.293 77.6328 114.068 79.4082 114.068 81.8691C114.068 84.3828 112.188 86.1758 109.533 86.1758Z" fill="black"/>
<path d="M131 79.5H123" stroke="#7A7A7A"/>
<path d="M101.975 330.273V343H100.023V332.207H99.9531L96.9121 334.193V332.348L100.076 330.273H101.975ZM109.533 343.176C107.125 343.176 105.314 341.699 105.227 339.678H107.107C107.213 340.768 108.25 341.559 109.533 341.559C111.08 341.559 112.188 340.434 112.188 338.922C112.188 337.375 111.045 336.25 109.445 336.232C108.426 336.232 107.652 336.566 107.213 337.357H105.385L106.211 330.273H113.418V331.926H107.811L107.389 335.494H107.512C108.039 334.984 108.936 334.633 109.902 334.633C112.293 334.633 114.068 336.408 114.068 338.869C114.068 341.383 112.188 343.176 109.533 343.176Z" fill="black"/>
<path d="M131 336.5H123" stroke="#7A7A7A"/>
<path d="M174.5 388L174.5 380" stroke="#7A7A7A"/>
<path d="M166.968 409.176C164.015 409.176 162.292 406.803 162.292 402.637C162.292 398.506 164.05 396.098 166.968 396.098C169.886 396.098 171.644 398.506 171.644 402.637C171.644 406.803 169.903 409.176 166.968 409.176ZM166.968 407.506C168.69 407.506 169.71 405.818 169.71 402.637C169.71 399.473 168.673 397.732 166.968 397.732C165.263 397.732 164.226 399.473 164.226 402.637C164.226 405.818 165.245 407.506 166.968 407.506ZM174.421 409.123C173.735 409.123 173.155 408.561 173.173 407.875C173.155 407.189 173.735 406.627 174.421 406.627C175.089 406.627 175.669 407.189 175.669 407.875C175.669 408.561 175.089 409.123 174.421 409.123ZM181.997 409.176C179.36 409.176 177.479 407.752 177.409 405.678H179.378C179.448 406.803 180.556 407.506 181.979 407.506C183.509 407.506 184.634 406.662 184.634 405.432C184.634 404.184 183.579 403.27 181.769 403.27H180.679V401.688H181.769C183.21 401.688 184.229 400.879 184.229 399.666C184.229 398.506 183.368 397.715 182.015 397.715C180.731 397.715 179.606 398.418 179.554 399.578H177.69C177.743 397.504 179.659 396.098 182.032 396.098C184.528 396.098 186.11 397.68 186.093 399.561C186.11 401.002 185.214 402.057 183.843 402.391V402.479C185.583 402.725 186.585 403.885 186.585 405.502C186.585 407.629 184.634 409.176 181.997 409.176Z" fill="black"/>
<path d="M667.5 388L667.5 380" stroke="#7A7A7A"/>
<path d="M655.538 409V407.594L659.95 403.146C661.339 401.688 662.042 400.879 662.042 399.771C662.042 398.523 661.022 397.715 659.687 397.715C658.28 397.715 657.366 398.611 657.366 399.965H655.538C655.521 397.645 657.296 396.098 659.722 396.098C662.183 396.098 663.87 397.645 663.888 399.719C663.87 401.143 663.202 402.268 660.812 404.623L658.228 407.242V407.348H664.099V409H655.538ZM667.491 409.123C666.806 409.123 666.226 408.561 666.243 407.875C666.226 407.189 666.806 406.627 667.491 406.627C668.159 406.627 668.739 407.189 668.739 407.875C668.739 408.561 668.159 409.123 667.491 409.123ZM675.12 409.176C672.712 409.176 670.901 407.699 670.813 405.678H672.694C672.8 406.768 673.837 407.559 675.12 407.559C676.667 407.559 677.774 406.434 677.774 404.922C677.774 403.375 676.632 402.25 675.032 402.232C674.013 402.232 673.239 402.566 672.8 403.357H670.972L671.798 396.273H679.005V397.926H673.397L672.976 401.494H673.099C673.626 400.984 674.522 400.633 675.489 400.633C677.88 400.633 679.655 402.408 679.655 404.869C679.655 407.383 677.774 409.176 675.12 409.176Z" fill="black"/>
<line x1="174.5" y1="337" x2="174.5" y2="379" stroke="#A7A7A7" stroke-dasharray="2 2"/>
<line x1="667.5" y1="337" x2="667.5" y2="379" stroke="#A7A7A7" stroke-dasharray="2 2"/>
<line x1="132" y1="79.5" x2="174" y2="79.5" stroke="#A7A7A7" stroke-dasharray="2 2"/>
<line x1="132" y1="336.5" x2="174" y2="336.5" stroke="#A7A7A7" stroke-dasharray="2 2"/>
</g>
<defs>
<clipPath id="clip0_6935_8194">
<rect width="810" height="416" fill="white"/>
</clipPath>
</defs>
</svg>
