<svg width="810" height="416" viewBox="0 0 810 416" fill="none" xmlns="http://www.w3.org/2000/svg">
<g clip-path="url(#clip0_6935_8127)">
<rect x="199.5" y="79.5" width="468" height="285" fill="#F1EDEA" stroke="#A7A7A7" stroke-dasharray="2 2"/>
<path d="M131 36V380H711" stroke="#7A7A7A"/>
<path d="M732.641 378.578V379.562H723.312V374.203H732.453V375.219H724.562V378.578H732.641ZM734.266 381.406V382.406H728.469V387.219H727.266V382.406H721.547V381.406H734.266ZM738.844 375.062C738.828 377.984 738.422 381.266 736.391 383.953L735.422 383.391C737.164 381.211 737.68 378.641 737.781 376.078H735.703V375.062H738.844ZM741.922 375.062C741.914 376.195 741.891 377.5 741.719 378.844H743.562V373.75H744.734V386.562H743.562V379.859H741.562C741.242 381.594 740.633 383.352 739.5 384.875L738.547 384.297C740.469 381.844 740.789 378.672 740.844 376.078H739.281V375.062H741.922ZM747.344 373.375V387.266H746.156V373.375H747.344ZM754.094 381.688C754.109 378.734 754.906 376.281 756.344 374.203H757.531C756.469 375.75 755.484 378.906 755.484 381.688C755.484 384.469 756.469 387.641 757.531 389.188H756.344C754.906 387.094 754.109 384.641 754.094 381.688ZM759.203 386V377.516H760.5V378.844H760.609C760.969 377.938 761.781 377.406 762.891 377.406C764 377.406 764.75 377.938 765.156 378.844H765.25C765.688 377.969 766.578 377.406 767.797 377.406C769.312 377.406 770.391 378.328 770.391 380.328V386H769.047V380.344C769.047 379.094 768.25 378.609 767.328 378.609C766.141 378.609 765.469 379.406 765.469 380.484V386H764.109V380.203C764.109 379.25 763.422 378.609 762.453 378.609C761.438 378.609 760.547 379.469 760.547 380.703V386H759.203ZM772.547 386V377.516H773.844V378.844H773.953C774.312 377.938 775.125 377.406 776.234 377.406C777.344 377.406 778.094 377.938 778.5 378.844H778.594C779.031 377.969 779.922 377.406 781.141 377.406C782.656 377.406 783.734 378.328 783.734 380.328V386H782.391V380.344C782.391 379.094 781.594 378.609 780.672 378.609C779.484 378.609 778.812 379.406 778.812 380.484V386H777.453V380.203C777.453 379.25 776.766 378.609 775.797 378.609C774.781 378.609 773.891 379.469 773.891 380.703V386H772.547ZM788.844 381.688C788.828 384.641 788.031 387.094 786.594 389.188H785.406C786.469 387.641 787.453 384.469 787.453 381.688C787.453 378.906 786.469 375.75 785.406 374.203H786.594C788.031 376.281 788.828 378.734 788.844 381.688Z" fill="#4E4E4E"/>
<path d="M115.016 6.89062V7.90625H112.875V10.9531H114.969V11.9375H110.5V13.6562H116.219V14.6562H103.562V13.6562H109.281V11.9375H104.797V10.9531H106.891V7.90625H104.75V6.89062H115.016ZM114.656 16.0469V20.2656H113.422V17.0625H104.969V16.0469H114.656ZM108.109 10.9531H111.656V7.90625H108.109V10.9531ZM122.266 14.6875C122.281 11.7344 123.078 9.28125 124.516 7.20312H125.703C124.641 8.75 123.656 11.9062 123.656 14.6875C123.656 17.4688 124.641 20.6406 125.703 22.1875H124.516C123.078 20.0938 122.281 17.6406 122.266 14.6875ZM127.375 19V10.5156H128.672V11.8438H128.781C129.141 10.9375 129.953 10.4062 131.062 10.4062C132.172 10.4062 132.922 10.9375 133.328 11.8438H133.422C133.859 10.9688 134.75 10.4062 135.969 10.4062C137.484 10.4062 138.562 11.3281 138.562 13.3281V19H137.219V13.3438C137.219 12.0938 136.422 11.6094 135.5 11.6094C134.312 11.6094 133.641 12.4062 133.641 13.4844V19H132.281V13.2031C132.281 12.25 131.594 11.6094 130.625 11.6094C129.609 11.6094 128.719 12.4688 128.719 13.7031V19H127.375ZM140.719 19V10.5156H142.016V11.8438H142.125C142.484 10.9375 143.297 10.4062 144.406 10.4062C145.516 10.4062 146.266 10.9375 146.672 11.8438H146.766C147.203 10.9688 148.094 10.4062 149.312 10.4062C150.828 10.4062 151.906 11.3281 151.906 13.3281V19H150.562V13.3438C150.562 12.0938 149.766 11.6094 148.844 11.6094C147.656 11.6094 146.984 12.4062 146.984 13.4844V19H145.625V13.2031C145.625 12.25 144.938 11.6094 143.969 11.6094C142.953 11.6094 142.062 12.4688 142.062 13.7031V19H140.719ZM157.016 14.6875C157 17.6406 156.203 20.0938 154.766 22.1875H153.578C154.641 20.6406 155.625 17.4688 155.625 14.6875C155.625 11.9062 154.641 8.75 153.578 7.20312H154.766C156.203 9.28125 157 11.7344 157.016 14.6875Z" fill="#4E4E4E"/>
<path d="M75.4902 246.176C73.1348 246.158 70.6738 244.77 70.6738 240.059C70.6738 235.629 72.5898 233.098 75.6484 233.098C77.9863 233.098 79.6211 234.557 79.9199 236.578H78.0039C77.7578 235.541 76.9316 234.785 75.6484 234.785C73.6797 234.785 72.5371 236.508 72.5371 239.373H72.6777C73.3633 238.301 74.5586 237.65 75.9473 237.65C78.2148 237.65 80.043 239.391 80.043 241.834C80.043 244.295 78.2324 246.193 75.4902 246.176ZM75.4727 244.559C77.0195 244.559 78.1621 243.363 78.1621 241.869C78.1621 240.41 77.0547 239.232 75.5254 239.232C73.9609 239.232 72.7832 240.463 72.7656 241.887C72.7832 243.293 73.9082 244.559 75.4727 244.559ZM86.4238 246.176C84.0156 246.176 82.2051 244.699 82.1172 242.678H83.998C84.1035 243.768 85.1406 244.559 86.4238 244.559C87.9707 244.559 89.0781 243.434 89.0781 241.922C89.0781 240.375 87.9355 239.25 86.3359 239.232C85.3164 239.232 84.543 239.566 84.1035 240.357H82.2754L83.1016 233.273H90.3086V234.926H84.7012L84.2793 238.494H84.4023C84.9297 237.984 85.8262 237.633 86.793 237.633C89.1836 237.633 90.959 239.408 90.959 241.869C90.959 244.383 89.0781 246.176 86.4238 246.176ZM97.4453 246.176C94.4922 246.176 92.7695 243.803 92.7695 239.637C92.7695 235.506 94.5273 233.098 97.4453 233.098C100.363 233.098 102.121 235.506 102.121 239.637C102.121 243.803 100.381 246.176 97.4453 246.176ZM97.4453 244.506C99.168 244.506 100.188 242.818 100.188 239.637C100.188 236.473 99.1504 234.732 97.4453 234.732C95.7402 234.732 94.7031 236.473 94.7031 239.637C94.7031 242.818 95.7227 244.506 97.4453 244.506Z" fill="black"/>
<path d="M110.371 240.309H109.043L109.16 237.281L106.582 238.902L105.918 237.75L108.613 236.344L105.918 234.918L106.582 233.766L109.16 235.387L109.043 232.359H110.371L110.254 235.387L112.832 233.766L113.496 234.918L110.82 236.344L113.496 237.75L112.832 238.902L110.254 237.281L110.371 240.309Z" fill="#F27100"/>
<path d="M131 239.5H123" stroke="#7A7A7A"/>
<path d="M64.1875 73.2734V86H62.2363V75.207H62.166L59.125 77.1934V75.3477L62.2891 73.2734H64.1875ZM68.9863 84.7871L67.5801 89.6387H66.0859L67.0176 84.7871H68.9863ZM75.5957 86.1758C72.959 86.1758 71.0781 84.752 71.0078 82.6777H72.9766C73.0469 83.8027 74.1543 84.5059 75.5781 84.5059C77.1074 84.5059 78.2324 83.6621 78.2324 82.4316C78.2324 81.1836 77.1777 80.2695 75.3672 80.2695H74.2773V78.6875H75.3672C76.8086 78.6875 77.8281 77.8789 77.8281 76.666C77.8281 75.5059 76.9668 74.7148 75.6133 74.7148C74.3301 74.7148 73.2051 75.418 73.1523 76.5781H71.2891C71.3418 74.5039 73.2578 73.0977 75.6309 73.0977C78.127 73.0977 79.709 74.6797 79.6914 76.5605C79.709 78.002 78.8125 79.0566 77.4414 79.3906V79.4785C79.1816 79.7246 80.1836 80.8848 80.1836 82.502C80.1836 84.6289 78.2324 86.1758 75.5957 86.1758ZM82.3105 86V84.5938L86.7227 80.1465C88.1113 78.6875 88.8145 77.8789 88.8145 76.7715C88.8145 75.5234 87.7949 74.7148 86.459 74.7148C85.0527 74.7148 84.1387 75.6113 84.1387 76.9648H82.3105C82.293 74.6445 84.0684 73.0977 86.4941 73.0977C88.9551 73.0977 90.6426 74.6445 90.6602 76.7188C90.6426 78.1426 89.9746 79.2676 87.584 81.623L85 84.2422V84.3477H90.8711V86H82.3105ZM97.4453 86.1758C94.4922 86.1758 92.7695 83.8027 92.7695 79.6367C92.7695 75.5059 94.5273 73.0977 97.4453 73.0977C100.363 73.0977 102.121 75.5059 102.121 79.6367C102.121 83.8027 100.381 86.1758 97.4453 86.1758ZM97.4453 84.5059C99.168 84.5059 100.188 82.8184 100.188 79.6367C100.188 76.4727 99.1504 74.7324 97.4453 74.7324C95.7402 74.7324 94.7031 76.4727 94.7031 79.6367C94.7031 82.8184 95.7227 84.5059 97.4453 84.5059Z" fill="black"/>
<path d="M110.371 80.3086H109.043L109.16 77.2812L106.582 78.9023L105.918 77.75L108.613 76.3438L105.918 74.918L106.582 73.7656L109.16 75.3867L109.043 72.3594H110.371L110.254 75.3867L112.832 73.7656L113.496 74.918L110.82 76.3438L113.496 77.75L112.832 78.9023L110.254 77.2812L110.371 80.3086Z" fill="#F27100"/>
<path d="M131 79.5H123" stroke="#7A7A7A"/>
<path d="M70.6035 278.521V276.957L76.2285 268.273H78.6191V276.887H80.3594V278.521H78.6191V281H76.791V278.521H70.6035ZM72.6426 276.887H76.791V270.576H76.6504L72.6426 276.781V276.887ZM82.3105 281V279.594L86.7227 275.146C88.1113 273.688 88.8145 272.879 88.8145 271.771C88.8145 270.523 87.7949 269.715 86.459 269.715C85.0527 269.715 84.1387 270.611 84.1387 271.965H82.3105C82.293 269.645 84.0684 268.098 86.4941 268.098C88.9551 268.098 90.6426 269.645 90.6602 271.719C90.6426 273.143 89.9746 274.268 87.584 276.623L85 279.242V279.348H90.8711V281H82.3105ZM97.4453 281.176C94.4922 281.176 92.7695 278.803 92.7695 274.637C92.7695 270.506 94.5273 268.098 97.4453 268.098C100.363 268.098 102.121 270.506 102.121 274.637C102.121 278.803 100.381 281.176 97.4453 281.176ZM97.4453 279.506C99.168 279.506 100.188 277.818 100.188 274.637C100.188 271.473 99.1504 269.732 97.4453 269.732C95.7402 269.732 94.7031 271.473 94.7031 274.637C94.7031 277.818 95.7227 279.506 97.4453 279.506Z" fill="black"/>
<path d="M110.371 275.309H109.043L109.16 272.281L106.582 273.902L105.918 272.75L108.613 271.344L105.918 269.918L106.582 268.766L109.16 270.387L109.043 267.359H110.371L110.254 270.387L112.832 268.766L113.496 269.918L110.82 271.344L113.496 272.75L112.832 273.902L110.254 272.281L110.371 275.309Z" fill="#F27100"/>
<path d="M131 274.5H123" stroke="#7A7A7A"/>
<path d="M109.287 358.098C111.625 358.115 114.086 359.521 114.086 364.18C114.086 368.645 112.17 371.176 109.111 371.176C106.773 371.176 105.121 369.734 104.822 367.66H106.738C107.002 368.732 107.828 369.488 109.111 369.488C111.08 369.488 112.223 367.766 112.24 364.865H112.082C111.396 365.938 110.201 366.588 108.83 366.588C106.545 366.588 104.717 364.848 104.717 362.404C104.717 359.979 106.527 358.08 109.287 358.098ZM109.287 359.715C107.74 359.715 106.598 360.91 106.598 362.369C106.598 363.846 107.705 365.006 109.252 365.006C110.781 365.006 111.977 363.758 111.977 362.352C111.977 360.98 110.852 359.715 109.287 359.715Z" fill="black"/>
<path d="M131 364.5H123" stroke="#7A7A7A"/>
<path d="M199.5 388L199.5 380" stroke="#7A7A7A"/>
<path d="M188.54 409.176C185.587 409.176 183.864 406.803 183.864 402.637C183.864 398.506 185.622 396.098 188.54 396.098C191.458 396.098 193.216 398.506 193.216 402.637C193.216 406.803 191.476 409.176 188.54 409.176ZM188.54 407.506C190.263 407.506 191.282 405.818 191.282 402.637C191.282 399.473 190.245 397.732 188.54 397.732C186.835 397.732 185.798 399.473 185.798 402.637C185.798 405.818 186.817 407.506 188.54 407.506ZM195.993 409.123C195.308 409.123 194.728 408.561 194.745 407.875C194.728 407.189 195.308 406.627 195.993 406.627C196.661 406.627 197.241 407.189 197.241 407.875C197.241 408.561 196.661 409.123 195.993 409.123ZM202.796 396.273V409H200.845V398.207H200.774L197.733 400.193V398.348L200.897 396.273H202.796ZM210.46 409.176C207.507 409.176 205.784 406.803 205.784 402.637C205.784 398.506 207.542 396.098 210.46 396.098C213.378 396.098 215.136 398.506 215.136 402.637C215.136 406.803 213.396 409.176 210.46 409.176ZM210.46 407.506C212.183 407.506 213.202 405.818 213.202 402.637C213.202 399.473 212.165 397.732 210.46 397.732C208.755 397.732 207.718 399.473 207.718 402.637C207.718 405.818 208.737 407.506 210.46 407.506Z" fill="black"/>
<path d="M286.5 388L286.5 380" stroke="#7A7A7A"/>
<path d="M275.637 409.176C272.684 409.176 270.961 406.803 270.961 402.637C270.961 398.506 272.719 396.098 275.637 396.098C278.555 396.098 280.312 398.506 280.312 402.637C280.312 406.803 278.572 409.176 275.637 409.176ZM275.637 407.506C277.359 407.506 278.379 405.818 278.379 402.637C278.379 399.473 277.342 397.732 275.637 397.732C273.932 397.732 272.895 399.473 272.895 402.637C272.895 405.818 273.914 407.506 275.637 407.506ZM283.09 409.123C282.404 409.123 281.824 408.561 281.842 407.875C281.824 407.189 282.404 406.627 283.09 406.627C283.758 406.627 284.338 407.189 284.338 407.875C284.338 408.561 283.758 409.123 283.09 409.123ZM289.893 396.273V409H287.941V398.207H287.871L284.83 400.193V398.348L287.994 396.273H289.893ZM297.451 409.176C295.043 409.176 293.232 407.699 293.145 405.678H295.025C295.131 406.768 296.168 407.559 297.451 407.559C298.998 407.559 300.105 406.434 300.105 404.922C300.105 403.375 298.963 402.25 297.363 402.232C296.344 402.232 295.57 402.566 295.131 403.357H293.303L294.129 396.273H301.336V397.926H295.729L295.307 401.494H295.43C295.957 400.984 296.854 400.633 297.82 400.633C300.211 400.633 301.986 402.408 301.986 404.869C301.986 407.383 300.105 409.176 297.451 409.176Z" fill="black"/>
<path d="M525.5 388L525.5 380" stroke="#7A7A7A"/>
<path d="M506.615 409.176C504.26 409.158 501.799 407.77 501.799 403.059C501.799 398.629 503.715 396.098 506.773 396.098C509.111 396.098 510.746 397.557 511.045 399.578H509.129C508.883 398.541 508.057 397.785 506.773 397.785C504.805 397.785 503.662 399.508 503.662 402.373H503.803C504.488 401.301 505.684 400.65 507.072 400.65C509.34 400.65 511.168 402.391 511.168 404.834C511.168 407.295 509.357 409.193 506.615 409.176ZM506.598 407.559C508.145 407.559 509.287 406.363 509.287 404.869C509.287 403.41 508.18 402.232 506.65 402.232C505.086 402.232 503.908 403.463 503.891 404.887C503.908 406.293 505.033 407.559 506.598 407.559ZM513.91 409.123C513.225 409.123 512.645 408.561 512.662 407.875C512.645 407.189 513.225 406.627 513.91 406.627C514.578 406.627 515.158 407.189 515.158 407.875C515.158 408.561 514.578 409.123 513.91 409.123ZM521.539 409.176C519.131 409.176 517.32 407.699 517.232 405.678H519.113C519.219 406.768 520.256 407.559 521.539 407.559C523.086 407.559 524.193 406.434 524.193 404.922C524.193 403.375 523.051 402.25 521.451 402.232C520.432 402.232 519.658 402.566 519.219 403.357H517.391L518.217 396.273H525.424V397.926H519.816L519.395 401.494H519.518C520.045 400.984 520.941 400.633 521.908 400.633C524.299 400.633 526.074 402.408 526.074 404.869C526.074 407.383 524.193 409.176 521.539 409.176ZM532.561 409.176C529.607 409.176 527.885 406.803 527.885 402.637C527.885 398.506 529.643 396.098 532.561 396.098C535.479 396.098 537.236 398.506 537.236 402.637C537.236 406.803 535.496 409.176 532.561 409.176ZM532.561 407.506C534.283 407.506 535.303 405.818 535.303 402.637C535.303 399.473 534.266 397.732 532.561 397.732C530.855 397.732 529.818 399.473 529.818 402.637C529.818 405.818 530.838 407.506 532.561 407.506Z" fill="black"/>
<path d="M545.871 404.809H544.543L544.66 401.781L542.082 403.402L541.418 402.25L544.113 400.844L541.418 399.418L542.082 398.266L544.66 399.887L544.543 396.859H545.871L545.754 399.887L548.332 398.266L548.996 399.418L546.32 400.844L548.996 402.25L548.332 403.402L545.754 401.781L545.871 404.809Z" fill="#F27100"/>
<path d="M667.5 388L667.5 380" stroke="#7A7A7A"/>
<path d="M648.457 409.176C645.697 409.176 643.764 407.682 643.781 405.607C643.764 403.973 644.941 402.637 646.436 402.408V402.338C645.135 402.039 644.256 400.879 644.256 399.49C644.256 397.539 646.031 396.098 648.457 396.098C650.865 396.098 652.623 397.539 652.641 399.49C652.623 400.879 651.744 402.039 650.461 402.338V402.408C651.938 402.637 653.115 403.973 653.133 405.607C653.115 407.682 651.182 409.176 648.457 409.176ZM648.457 407.576C650.109 407.576 651.164 406.715 651.164 405.467C651.164 404.148 650.021 403.199 648.457 403.199C646.875 403.199 645.715 404.148 645.75 405.467C645.715 406.715 646.77 407.576 648.457 407.576ZM648.457 401.67C649.793 401.67 650.742 400.861 650.742 399.666C650.742 398.488 649.811 397.68 648.457 397.68C647.051 397.68 646.137 398.471 646.137 399.666C646.137 400.861 647.104 401.67 648.457 401.67ZM655.998 409.123C655.312 409.123 654.732 408.561 654.75 407.875C654.732 407.189 655.312 406.627 655.998 406.627C656.666 406.627 657.246 407.189 657.246 407.875C657.246 408.561 656.666 409.123 655.998 409.123ZM663.451 409.176C660.498 409.176 658.775 406.803 658.775 402.637C658.775 398.506 660.533 396.098 663.451 396.098C666.369 396.098 668.127 398.506 668.127 402.637C668.127 406.803 666.387 409.176 663.451 409.176ZM663.451 407.506C665.174 407.506 666.193 405.818 666.193 402.637C666.193 399.473 665.156 397.732 663.451 397.732C661.746 397.732 660.709 399.473 660.709 402.637C660.709 405.818 661.729 407.506 663.451 407.506ZM674.561 409.176C671.607 409.176 669.885 406.803 669.885 402.637C669.885 398.506 671.643 396.098 674.561 396.098C677.479 396.098 679.236 398.506 679.236 402.637C679.236 406.803 677.496 409.176 674.561 409.176ZM674.561 407.506C676.283 407.506 677.303 405.818 677.303 402.637C677.303 399.473 676.266 397.732 674.561 397.732C672.855 397.732 671.818 399.473 671.818 402.637C671.818 405.818 672.838 407.506 674.561 407.506Z" fill="black"/>
<path d="M687.871 404.809H686.543L686.66 401.781L684.082 403.402L683.418 402.25L686.113 400.844L683.418 399.418L684.082 398.266L686.66 399.887L686.543 396.859H687.871L687.754 399.887L690.332 398.266L690.996 399.418L688.32 400.844L690.996 402.25L690.332 403.402L687.754 401.781L687.871 404.809Z" fill="#F27100"/>
<path d="M525.5 79.5V240.5H667.5V274.5H525.5V364.5H199.5V274.5H286.5V79.5H525.5Z" fill="#FAC699" stroke="#F27100"/>
<path d="M574.457 155.256V156.592H565.598V155.256H569.289V153.604H570.941V155.256H574.457ZM570.098 157.26C572.225 157.26 573.719 158.402 573.736 160.107C573.719 161.83 572.225 162.955 570.098 162.955C567.953 162.955 566.477 161.83 566.477 160.107C566.477 158.402 567.953 157.26 570.098 157.26ZM570.098 158.543C568.85 158.543 568.041 159.141 568.041 160.107C568.041 161.074 568.85 161.707 570.098 161.707C571.328 161.707 572.172 161.074 572.189 160.107C572.172 159.141 571.328 158.543 570.098 158.543ZM578.711 153.744V163.078H577.041V161.76H574.492V160.406H577.041V158.684H574.51V157.312H577.041V153.744H578.711ZM569.992 163.711V165.205H577.059V163.711H578.711V169.301H568.34V163.711H569.992ZM569.992 167.982H577.059V166.488H569.992V167.982ZM586.27 154.869C588.766 154.852 590.541 156.398 590.559 158.613C590.541 160.828 588.766 162.375 586.27 162.375C583.791 162.375 581.963 160.828 581.98 158.613C581.963 156.398 583.791 154.852 586.27 154.869ZM586.27 156.311C584.74 156.311 583.615 157.225 583.633 158.613C583.615 160.002 584.74 160.916 586.27 160.916C587.799 160.916 588.924 160.002 588.924 158.613C588.924 157.225 587.799 156.311 586.27 156.311ZM594.162 153.744V169.529H592.492V153.744H594.162ZM581.225 164.748C584.09 164.748 588.062 164.713 591.508 164.221L591.631 165.434C588.062 166.119 584.248 166.137 581.436 166.137L581.225 164.748ZM609.789 153.744V161.883H608.102V153.744H609.789ZM609.789 162.604V166.506H601.018V168H610.334V169.336H599.383V165.293H608.137V163.922H599.33V162.604H609.789ZM605.939 154.781V156.1H604.428V159.826C605.192 159.773 605.948 159.703 606.66 159.615L606.73 160.828C603.584 161.303 599.91 161.408 597.15 161.408L596.957 160.072L598.873 160.055V156.1H597.379V154.781H605.939ZM600.473 160.02C601.246 159.993 602.037 159.967 602.828 159.914V156.1H600.473V160.02ZM626.664 166.137V167.525H612.25V166.137H615.695V162.023C614.403 161.312 613.621 160.178 613.621 158.771C613.621 156.293 616.047 154.658 619.422 154.658C622.814 154.658 625.24 156.293 625.24 158.771C625.24 160.16 624.484 161.276 623.219 161.988V166.137H626.664ZM619.422 155.994C616.943 155.994 615.238 157.066 615.238 158.771C615.238 160.459 616.943 161.566 619.422 161.566C621.883 161.566 623.623 160.459 623.623 158.771C623.623 157.066 621.883 155.994 619.422 155.994ZM617.348 166.137H621.531V162.621C620.89 162.788 620.178 162.867 619.422 162.867C618.684 162.867 617.98 162.788 617.348 162.639V166.137Z" fill="#7A7A7A"/>
<line x1="132" y1="274.5" x2="199" y2="274.5" stroke="#A7A7A7" stroke-dasharray="2 2"/>
<line x1="199.5" y1="365" x2="199.5" y2="379" stroke="#A7A7A7" stroke-dasharray="2 2"/>
<line x1="286.5" y1="365" x2="286.5" y2="379" stroke="#A7A7A7" stroke-dasharray="2 2"/>
<line x1="525.5" y1="365" x2="525.5" y2="379" stroke="#A7A7A7" stroke-dasharray="2 2"/>
<line x1="667.5" y1="365" x2="667.5" y2="379" stroke="#A7A7A7" stroke-dasharray="2 2"/>
<line x1="132" y1="239.5" x2="286" y2="239.5" stroke="#A7A7A7" stroke-dasharray="2 2"/>
<line x1="525" y1="239.5" x2="287" y2="239.5" stroke="white" stroke-dasharray="2 2"/>
<line x1="525" y1="274.5" x2="287" y2="274.5" stroke="white" stroke-dasharray="2 2"/>
<line x1="286.5" y1="364" x2="286.5" y2="275" stroke="white" stroke-dasharray="2 2"/>
<line x1="525.5" y1="274" x2="525.5" y2="241" stroke="white" stroke-dasharray="2 2"/>
<line x1="132" y1="79.5" x2="199" y2="79.5" stroke="#A7A7A7" stroke-dasharray="2 2"/>
<line x1="132" y1="364.5" x2="199" y2="364.5" stroke="#A7A7A7" stroke-dasharray="2 2"/>
</g>
<defs>
<clipPath id="clip0_6935_8127">
<rect width="810" height="416" fill="white"/>
</clipPath>
</defs>
</svg>
