<svg width="163" height="27" viewBox="0 0 163 27" fill="none" xmlns="http://www.w3.org/2000/svg">
<g clip-path="url(#clip0_6871_687)">
<path d="M52.8815 0H67.9773L56.8851 11.9215L63.6553 26.7048H48.596L41.9219 11.9215L52.8815 0Z" fill="white"/>
<path d="M36.5515 0H5.63793L0 26.6689H30.9114C34.4364 26.6689 37.9059 23.8852 38.6302 20.4793L41.6553 6.18957C42.3774 2.78372 40.0808 0.00210888 36.5515 0.00210888V0ZM27.9461 7.66789L25.579 18.9989C25.2094 20.7767 23.3999 22.2318 21.5668 22.2318H14.3437L18.0589 4.43919H25.2799C27.1193 4.43919 28.32 5.89643 27.9461 7.66789Z" fill="white"/>
<path d="M121.944 5.72514H120.425V7.78341H122.236V9.61603C122.236 10.4659 121.924 10.8012 120.954 10.8012H120.36C119.532 10.8012 119.085 10.4575 119.085 9.61603V8.22628H119.091L119.085 6.46536L119.091 4.70866H119.085V3.31891C119.085 2.48379 119.532 2.13161 120.36 2.13161H120.954C121.922 2.13161 122.236 2.47747 122.236 3.31891V3.78497H126.349V3.63524C126.349 0.864174 125.52 0.00585938 122.416 0.00585938H118.938C116.147 0.00585938 114.975 0.838867 114.975 3.61837V9.39249C114.975 12.172 116.147 13.0008 118.938 13.0008H122.416C125.52 13.0008 126.349 12.1467 126.349 9.37562V5.73147H121.944V5.72514Z" fill="white"/>
<path d="M85.8425 0.100586H77.7285V12.8656H85.7592C88.3656 12.8656 89.0941 11.7458 89.0941 9.86259V3.12894C89.0941 1.2436 88.3122 0.100586 85.8425 0.100586ZM85.1525 9.6264C85.1525 10.3624 84.8619 10.7399 83.924 10.7399H81.6787V2.2179H83.924C84.6974 2.2179 85.1525 2.65444 85.1525 3.33139V9.6264Z" fill="white"/>
<path d="M145.902 9.70654C145.902 10.5332 145.592 10.8664 144.639 10.8664H143.947C143.133 10.8664 142.691 10.5269 142.691 9.70654L142.687 0.100586H138.621V9.483C138.621 12.214 139.781 13.0301 142.541 13.0301H146.081C149.151 13.0301 149.963 12.195 149.963 9.46613V0.100586H145.902V9.70654Z" fill="white"/>
<path d="M97.4301 0.0224609H93.9477C91.1576 0.0224609 89.9805 0.855469 89.9805 3.63286V9.388C89.9805 12.1675 91.1576 12.9963 93.9477 12.9963H97.4301C100.536 12.9963 101.352 12.1422 101.352 9.37113V3.65184C101.352 0.874449 100.534 0.0245698 97.4301 0.0245698V0.0224609ZM97.2463 4.82649V9.61576C97.2463 10.4656 96.9366 10.801 95.973 10.801H95.3727C94.5459 10.801 94.0973 10.4572 94.0973 9.61576V8.22601H94.1016L94.0973 6.46509L94.1016 4.72948H94.0973V3.33762C94.0973 2.50251 94.5459 2.15876 95.3727 2.15876H95.973C96.9366 2.15876 97.2463 2.5004 97.2463 3.33762V4.83071V4.82649Z" fill="white"/>
<path d="M110.041 7.9646L106.704 0.100586H102.25V12.8656H106.358V4.47651L109.994 12.872H114.116V0.100586H110.041V7.9646Z" fill="white"/>
<path d="M131.253 6.49471L134.922 12.8656H139.246L135.095 6.10035L138.201 0.100586H134.27L131.253 6.10879V0.100586H127.16V12.872H131.253V6.49471Z" fill="white"/>
<path d="M155.005 6.49471L158.669 12.8656H163L158.849 6.10035L161.955 0.100586H158.022L155.005 6.10879V0.100586H150.914V12.872H155.005V6.49471Z" fill="white"/>
<path d="M139.945 24.7686C139.945 23.9483 139.733 23.3936 139.195 22.8706C139.144 22.8137 138.985 22.6766 138.53 22.3624C138.53 22.3624 136.834 21.251 136.83 21.2447C136.024 20.7554 135.623 20.1902 135.623 19.5702C135.623 19.1695 135.732 18.8701 135.941 18.6697C136.146 18.4799 136.447 18.3808 136.847 18.3808C137.285 18.3808 137.625 18.5179 137.804 18.7583C137.975 18.9882 138.073 19.4374 138.082 19.8549H139.866C139.874 19.76 139.874 19.5702 139.874 19.5702C139.874 18.7773 139.663 18.2121 139.242 17.8768C138.8 17.5204 138.043 17.3369 136.999 17.3369C135.779 17.3369 134.903 17.5141 134.401 17.8599C133.939 18.1805 133.713 18.7161 133.713 19.4964C133.713 20.3864 134.012 20.825 134.58 21.3522L135.253 21.8478L136.744 22.8116C137.274 23.1553 137.614 23.4442 137.789 23.691C137.971 23.9609 138.063 24.3215 138.063 24.7644C138.063 25.1756 137.956 25.4814 137.736 25.6754C137.537 25.8589 137.229 25.9559 136.809 25.9559C136.364 25.9559 136.01 25.8188 135.804 25.5721C135.661 25.3928 135.482 24.9668 135.48 24.3996H133.726C133.721 24.5472 133.715 24.853 133.715 24.853C133.715 25.6122 133.941 26.1626 134.39 26.4789C134.877 26.8248 135.725 27.0019 136.903 27.0019C138.08 27.0019 138.898 26.8353 139.338 26.5063C139.742 26.2027 139.947 25.6227 139.947 24.7728L139.945 24.7686Z" fill="white"/>
<path d="M126.636 26.8733V17.5479H124.732V26.8733H126.636Z" fill="white"/>
<path d="M132.986 18.7476V17.5498H127.953V26.8753H132.986V25.6774H129.855V22.6217H132.865V21.4069H129.855V18.7476H132.986Z" fill="white"/>
<path d="M79.7746 26.8733V17.5479H77.8711V26.8733H79.7746Z" fill="white"/>
<path d="M85.6424 26.8733H88.6974V17.5479H86.7939V25.5595C86.7939 25.5595 84.1811 17.7461 84.1063 17.5479H81.0684V26.8733H82.9719V18.8638C83.0018 18.9376 85.3283 25.9602 85.6424 26.8733Z" fill="white"/>
<path d="M95.9298 25.1586V19.2137C95.9298 18.6042 95.7097 18.2057 95.2418 17.9589C94.727 17.689 93.7955 17.5498 92.4688 17.5498H89.918V26.8753H92.4688C93.8062 26.8753 94.7355 26.7403 95.2504 26.4683C95.7161 26.2131 95.9298 25.7976 95.9298 25.1586ZM94.0305 24.7643C94.0305 25.0891 93.9258 25.3379 93.7143 25.4982C93.5285 25.6458 93.24 25.7238 92.8363 25.7238L92.55 25.7175L91.8279 25.6859V18.9902L91.8087 18.7308L92.3385 18.7076H92.7145C93.176 18.7076 93.4879 18.7666 93.6801 18.8868C93.8361 18.9902 94.0326 19.2053 94.0326 19.6292V24.7664L94.0305 24.7643Z" fill="white"/>
<path d="M102.954 25.0005V17.5498H101.046V24.3847C101.046 24.992 100.974 25.3506 100.816 25.5361C100.647 25.7365 100.373 25.8314 99.9889 25.8314C99.6044 25.8314 99.3288 25.7323 99.1579 25.5319C98.9998 25.34 98.9229 24.9815 98.9229 24.3657V17.5498H97.0215V25.0005C97.0215 25.7449 97.2351 26.251 97.6688 26.5294C98.1559 26.8584 98.8545 26.9976 99.9868 26.9976C101.119 26.9976 101.809 26.8584 102.296 26.5294C102.73 26.2553 102.952 25.7407 102.952 25.0005H102.954Z" fill="white"/>
<path d="M109.966 24.7703C109.966 23.9478 109.75 23.3932 109.212 22.8701C109.161 22.8132 109.003 22.6825 108.545 22.3619L106.851 21.2442C106.05 20.7549 105.638 20.1898 105.638 19.574C105.638 19.1691 105.747 18.8675 105.965 18.6714C106.163 18.4795 106.471 18.3846 106.864 18.3846C107.296 18.3846 107.644 18.5216 107.817 18.7621C107.988 18.9877 108.088 19.3926 108.097 19.8081H109.878C109.887 19.7195 109.896 19.574 109.896 19.574C109.896 18.7789 109.68 18.2158 109.263 17.8763C108.821 17.5199 108.065 17.3428 107.011 17.3428C105.796 17.3428 104.924 17.5136 104.426 17.8616C103.965 18.1842 103.736 18.7178 103.736 19.4959C103.736 20.3817 104.046 20.8372 104.599 21.3518L105.275 21.8473L106.757 22.8111C107.293 23.1548 107.631 23.4438 107.804 23.6905C107.99 23.9604 108.077 24.3253 108.077 24.7639C108.077 25.1752 107.971 25.4809 107.759 25.675C107.552 25.8584 107.249 25.9554 106.83 25.9554C106.388 25.9554 106.024 25.8184 105.828 25.5716C105.68 25.3945 105.512 25.0128 105.501 24.4413H103.749C103.749 24.5952 103.738 24.8525 103.738 24.8525C103.738 25.6117 103.967 26.1621 104.409 26.4784C104.899 26.8243 105.742 27.0014 106.924 27.0014C108.105 27.0014 108.915 26.8348 109.355 26.5059C109.765 26.2022 109.97 25.6222 109.97 24.7745L109.966 24.7703Z" fill="white"/>
<path d="M116.657 17.5498H110.273V18.7476H112.519V26.8753H114.418V18.7476H116.655V17.5498H116.657Z" fill="white"/>
<path d="M123.572 26.7084V23.7433C123.572 23.2625 123.418 22.9209 123.168 22.6741C122.912 22.4211 122.519 22.071 121.795 22.0267C123.412 21.8833 123.399 20.5294 123.399 20.5294V19.0722C123.399 19.011 123.399 18.9667 123.386 18.9119C123.382 18.895 123.382 18.8845 123.38 18.876C123.373 18.836 123.369 18.7959 123.356 18.7558C123.356 18.7537 123.356 18.7432 123.35 18.7368C122.98 17.4483 120.515 17.558 120.515 17.558H117.449V26.8729H119.346V22.6551L119.489 22.6467L119.962 22.613H120.171C120.647 22.6109 120.998 22.691 121.246 22.8471C121.525 23.02 121.671 23.3026 121.671 23.6548V26.6873C121.671 26.7401 121.679 26.7717 121.698 26.7928C121.709 26.8139 121.754 26.8413 121.827 26.875H123.643C123.585 26.7464 123.576 26.7253 123.576 26.7084H123.572ZM121.5 20.5568C121.5 20.8753 121.344 21.1452 121.081 21.2991C120.844 21.4404 120.511 21.5016 120.056 21.5016L119.769 21.4974L119.342 21.4636V18.9899L119.336 18.7411L119.477 18.7305L119.774 18.7031H120.039C120.487 18.701 120.825 18.7643 121.064 18.8992C121.344 19.0595 121.502 19.3189 121.502 19.6416V20.5589L121.5 20.5568Z" fill="white"/>
</g>
<defs>
<clipPath id="clip0_6871_687">
<rect width="163" height="27" fill="white"/>
</clipPath>
</defs>
</svg>
