<svg width="320" height="96" viewBox="0 0 320 96" fill="none" xmlns="http://www.w3.org/2000/svg">
<g clip-path="url(#clip0_6_5423)">
<path d="M159.043 0.0546875L138.749 95.9999H94.0762L114.371 0.0546875H159.043Z" fill="#EE7826"/>
<path d="M62.3931 12.2235L47.2407 83.869H86.9464L84.3781 95.9997H0L20.2892 0.0927734H104.667L102.099 12.2235H62.3931Z" fill="#003592"/>
<path d="M295.348 0L285.689 45.6708H265.669L269.214 28.898H249.232L251.801 16.7673H271.783L275.328 0H295.348Z" fill="#003592"/>
<path d="M211.069 79.1945L210.092 83.8147H302.291L299.711 96.0001H253.277L253.294 95.9454H161.09L167.198 67.0638H259.402L260.384 62.4217H168.18L170.749 50.291H309.381L303.268 79.1945H211.069Z" fill="#003592"/>
<path d="M320.001 0L310.342 45.6708H290.322L299.981 0H320.001Z" fill="#003592"/>
<path d="M250.693 -0.000385235L245.869 22.7994C244.547 29.0509 235.689 34.744 222.446 38.8824C221.458 39.178 220.443 39.4901 219.4 39.7911C206.334 43.4533 189.573 45.6704 171.721 45.6704L174.289 33.5397C191.713 33.5397 207.486 31.7113 217.293 28.8976H175.271L177.84 16.7669H227.128L228.11 12.1248H178.822L181.385 -0.00585938H250.693V-0.000385235Z" fill="#003592"/>
</g>
<defs>
<clipPath id="clip0_6_5423">
<rect width="320" height="96" fill="white"/>
</clipPath>
</defs>
</svg>
