<svg width="328" height="174" viewBox="0 0 328 174" fill="none" xmlns="http://www.w3.org/2000/svg">
<g clip-path="url(#clip0_7238_20628)">
<rect width="328" height="174" rx="16" fill="white"/>
<line x1="-254" y1="62.9153" x2="582" y2="62.9153" stroke="url(#paint0_linear_7238_20628)" stroke-width="0.497619"/>
<line x1="-254" y1="44.4856" x2="582" y2="44.4856" stroke="url(#paint1_linear_7238_20628)" stroke-width="0.497619"/>
<line x1="72.7957" y1="-8.50781" x2="72.7957" y2="183.076" stroke="url(#paint2_linear_7238_20628)" stroke-width="0.497619"/>
<line x1="66.3347" y1="-8.50781" x2="66.3347" y2="183.076" stroke="url(#paint3_linear_7238_20628)" stroke-width="0.497619"/>
<line x1="-254" y1="129.099" x2="582" y2="129.099" stroke="url(#paint4_linear_7238_20628)" stroke-width="0.497619"/>
<line x1="-254" y1="111.173" x2="582" y2="111.173" stroke="url(#paint5_linear_7238_20628)" stroke-width="0.497619"/>
<g clip-path="url(#clip1_7238_20628)">
<path d="M163.874 63.1914L153.81 110.894H131.656L141.721 63.1914H163.874Z" fill="#EE7826"/>
<path d="M115.942 69.2422L108.427 104.863H128.118L126.844 110.895H85L95.0616 63.2109H136.906L135.632 69.2422H115.942Z" fill="#003592"/>
<path d="M231.463 63.1641L226.673 85.871H216.745L218.503 77.5318H208.594L209.867 71.5006H219.777L221.535 63.1641H231.463Z" fill="#003592"/>
<path d="M189.668 102.538L189.184 104.836H234.906L233.627 110.894H210.6L210.608 110.867H164.883L167.912 96.5072H213.637L214.124 94.1992H168.399L169.673 88.168H238.422L235.391 102.538H189.668Z" fill="#003592"/>
<path d="M243.687 63.1641L238.897 85.871H228.969L233.759 63.1641H243.687Z" fill="#003592"/>
<path d="M209.32 63.1629L206.927 74.4987C206.271 77.6068 201.879 80.4373 195.312 82.4949C194.822 82.6419 194.318 82.797 193.801 82.9467C187.321 84.7675 179.01 85.8698 170.156 85.8698L171.43 79.8386C180.071 79.8386 187.893 78.9295 192.756 77.5306H171.917L173.191 71.4994H197.633L198.12 69.1914H173.678L174.949 63.1602H209.32V63.1629Z" fill="#003592"/>
</g>
<line y1="-0.24881" x2="305.04" y2="-0.24881" transform="matrix(-1 0 0 1 548.742 75.1094)" stroke="url(#paint6_linear_7238_20628)" stroke-width="0.497619"/>
<line y1="-0.24881" x2="305.04" y2="-0.24881" transform="matrix(-1 0 0 1 548.742 87.0312)" stroke="url(#paint7_linear_7238_20628)" stroke-width="0.497619"/>
<line y1="-0.24881" x2="305.04" y2="-0.24881" transform="matrix(-1 0 0 1 548.742 98.9766)" stroke="url(#paint8_linear_7238_20628)" stroke-width="0.497619"/>
<line y1="-0.24881" x2="191.583" y2="-0.24881" transform="matrix(2.25776e-08 1 1 -8.54932e-08 255.664 -8.50781)" stroke="url(#paint9_linear_7238_20628)" stroke-width="0.497619"/>
<line y1="-0.24881" x2="191.583" y2="-0.24881" transform="matrix(2.25776e-08 1 1 -8.54932e-08 262.617 -8.50781)" stroke="url(#paint10_linear_7238_20628)" stroke-width="0.497619"/>
<line x1="243.944" y1="-9" x2="243.944" y2="183.081" stroke="url(#paint11_linear_7238_20628)" stroke-width="0.497619"/>
<rect x="244.211" y="44.7344" width="17.9143" height="17.9143" fill="#FDE4D5" fill-opacity="0.8"/>
<rect x="244.211" y="111.422" width="17.9143" height="17.9143" fill="#FDE4D5" fill-opacity="0.8"/>
<path d="M248.672 136.102L248.672 146L247.428 146L247.428 137.387L247.373 137.387L244.967 138.986L244.967 137.742L247.428 136.102L248.672 136.102ZM251.584 146.082C251.105 146.082 250.695 145.686 250.709 145.193C250.695 144.715 251.105 144.318 251.584 144.318C252.063 144.318 252.459 144.715 252.459 145.193C252.459 145.686 252.063 146.082 251.584 146.082ZM257.326 146.137C255.535 146.137 254.182 145.029 254.113 143.512L255.303 143.512C255.398 144.4 256.26 145.057 257.326 145.057C258.611 145.057 259.541 144.113 259.541 142.869C259.541 141.584 258.57 140.641 257.244 140.627C256.41 140.613 255.768 140.873 255.398 141.516L254.209 141.516L254.906 136.102L260.266 136.102L260.266 137.195L255.932 137.195L255.563 140.094L255.658 140.094C256.096 139.752 256.766 139.52 257.463 139.52C259.35 139.52 260.744 140.914 260.744 142.842C260.744 144.756 259.295 146.137 257.326 146.137ZM263.246 136.102L265.762 140.189L265.844 140.189L268.373 136.102L269.822 136.102L266.719 141.051L269.822 146L268.373 146L265.844 141.994L265.762 141.994L263.232 146L261.783 146L264.969 141.051L261.783 136.102L263.246 136.102Z" fill="#4E4E4E"/>
<path d="M268.672 115.102L268.672 125L267.428 125L267.428 116.387L267.373 116.387L264.967 117.986L264.967 116.742L267.428 115.102L268.672 115.102ZM271.584 125.082C271.105 125.082 270.695 124.686 270.709 124.193C270.695 123.715 271.105 123.318 271.584 123.318C272.063 123.318 272.459 123.715 272.459 124.193C272.459 124.686 272.063 125.082 271.584 125.082ZM277.326 125.137C275.535 125.137 274.182 124.029 274.113 122.512L275.303 122.512C275.398 123.4 276.26 124.057 277.326 124.057C278.611 124.057 279.541 123.113 279.541 121.869C279.541 120.584 278.57 119.641 277.244 119.627C276.41 119.613 275.768 119.873 275.398 120.516L274.209 120.516L274.906 115.102L280.266 115.102L280.266 116.195L275.932 116.195L275.563 119.094L275.658 119.094C276.096 118.752 276.766 118.52 277.463 118.52C279.35 118.52 280.744 119.914 280.744 121.842C280.744 123.756 279.295 125.137 277.326 125.137ZM283.246 115.102L285.762 119.189L285.844 119.189L288.373 115.102L289.822 115.102L286.719 120.051L289.822 125L288.373 125L285.844 120.994L285.762 120.994L283.232 125L281.783 125L284.969 120.051L281.783 115.102L283.246 115.102Z" fill="#4E4E4E"/>
<line x1="-220.531" y1="74.8606" x2="84.5092" y2="74.8606" stroke="url(#paint12_linear_7238_20628)" stroke-width="0.497619"/>
<line x1="-220.531" y1="86.7824" x2="84.5092" y2="86.7824" stroke="url(#paint13_linear_7238_20628)" stroke-width="0.497619"/>
<line x1="-220.531" y1="98.7278" x2="84.5092" y2="98.7278" stroke="url(#paint14_linear_7238_20628)" stroke-width="0.497619"/>
<line x1="84.7488" y1="-8.50781" x2="84.7488" y2="183.076" stroke="url(#paint15_linear_7238_20628)" stroke-width="0.497619"/>
<rect x="66.5938" y="44.7344" width="17.9143" height="17.9143" fill="#FDE4D5" fill-opacity="0.8"/>
<rect x="73.0547" y="63.1641" width="11.4452" height="11.4452" fill="#EE7826" fill-opacity="0.5"/>
<rect x="66.5938" y="111.422" width="17.9143" height="17.9143" fill="#FDE4D5" fill-opacity="0.8"/>
<path d="M42.8984 48.1016L42.8984 58L41.6543 58L41.6543 49.3867L41.5996 49.3867L39.1934 50.9863L39.1934 49.7422L41.6543 48.1016L42.8984 48.1016ZM45.8105 58.082C45.332 58.082 44.9219 57.6855 44.9355 57.1934C44.9219 56.7148 45.332 56.3184 45.8105 56.3184C46.2891 56.3184 46.6855 56.7148 46.6855 57.1934C46.6855 57.6855 46.2891 58.082 45.8105 58.082ZM51.5527 58.1367C49.7617 58.1367 48.4082 57.0293 48.3398 55.5117L49.5293 55.5117C49.625 56.4004 50.4863 57.0566 51.5527 57.0566C52.8379 57.0566 53.7676 56.1133 53.7676 54.8691C53.7676 53.584 52.7969 52.6406 51.4707 52.627C50.6367 52.6133 49.9941 52.873 49.625 53.5156L48.4355 53.5156L49.1328 48.1016L54.4922 48.1016L54.4922 49.1953L50.1582 49.1953L49.7891 52.0937L49.8848 52.0937C50.3223 51.752 50.9922 51.5195 51.6895 51.5195C53.5762 51.5195 54.9707 52.9141 54.9707 54.8418C54.9707 56.7559 53.5215 58.1367 51.5527 58.1367ZM57.4727 48.1016L59.9883 52.1895L60.0703 52.1895L62.5996 48.1016L64.0488 48.1016L60.9453 53.0508L64.0488 58L62.5996 58L60.0703 53.9941L59.9883 53.9941L57.459 58L56.0098 58L59.1953 53.0508L56.0098 48.1016L57.4727 48.1016Z" fill="#4E4E4E"/>
<path d="M64.8984 27.1016L64.8984 37L63.6543 37L63.6543 28.3867L63.5996 28.3867L61.1934 29.9863L61.1934 28.7422L63.6543 27.1016L64.8984 27.1016ZM67.8105 37.082C67.332 37.082 66.9219 36.6855 66.9355 36.1934C66.9219 35.7148 67.332 35.3184 67.8105 35.3184C68.2891 35.3184 68.6855 35.7148 68.6855 36.1934C68.6855 36.6855 68.2891 37.082 67.8105 37.082ZM73.5527 37.1367C71.7617 37.1367 70.4082 36.0293 70.3398 34.5117L71.5293 34.5117C71.625 35.4004 72.4863 36.0566 73.5527 36.0566C74.8379 36.0566 75.7676 35.1133 75.7676 33.8691C75.7676 32.584 74.7969 31.6406 73.4707 31.627C72.6367 31.6133 71.9941 31.873 71.625 32.5156L70.4355 32.5156L71.1328 27.1016L76.4922 27.1016L76.4922 28.1953L72.1582 28.1953L71.7891 31.0937L71.8848 31.0937C72.3223 30.752 72.9922 30.5195 73.6895 30.5195C75.5762 30.5195 76.9707 31.9141 76.9707 33.8418C76.9707 35.7559 75.5215 37.1367 73.5527 37.1367ZM79.4727 27.1016L81.9883 31.1895L82.0703 31.1895L84.5996 27.1016L86.0488 27.1016L82.9453 32.0508L86.0488 37L84.5996 37L82.0703 32.9941L81.9883 32.9941L79.459 37L78.0098 37L81.1953 32.0508L78.0098 27.1016L79.4727 27.1016Z" fill="#4E4E4E"/>
<path d="M59.8984 64.1016L59.8984 74L58.6543 74L58.6543 65.3867L58.5996 65.3867L56.1934 66.9863L56.1934 65.7422L58.6543 64.1016L59.8984 64.1016ZM63.3301 64.1016L65.8457 68.1895L65.9277 68.1895L68.457 64.1016L69.9063 64.1016L66.8027 69.0508L69.9063 74L68.457 74L65.9277 69.9941L65.8457 69.9941L63.3164 74L61.8672 74L65.0527 69.0508L61.8672 64.1016L63.3301 64.1016Z" fill="#4E4E4E"/>
</g>
<rect x="0.5" y="0.5" width="327" height="173" rx="15.5" stroke="#E9E9E9"/>
<defs>
<linearGradient id="paint0_linear_7238_20628" x1="-254" y1="63.6641" x2="582" y2="63.6641" gradientUnits="userSpaceOnUse">
<stop stop-color="white"/>
<stop offset="0.5" stop-color="#D3D3D3"/>
<stop offset="1" stop-color="white"/>
</linearGradient>
<linearGradient id="paint1_linear_7238_20628" x1="-254" y1="45.2344" x2="582" y2="45.2344" gradientUnits="userSpaceOnUse">
<stop stop-color="white"/>
<stop offset="0.5" stop-color="#D3D3D3"/>
<stop offset="1" stop-color="white"/>
</linearGradient>
<linearGradient id="paint2_linear_7238_20628" x1="72.0469" y1="-8.50781" x2="72.0469" y2="183.076" gradientUnits="userSpaceOnUse">
<stop stop-color="white"/>
<stop offset="0.5" stop-color="#D3D3D3"/>
<stop offset="1" stop-color="white"/>
</linearGradient>
<linearGradient id="paint3_linear_7238_20628" x1="65.5859" y1="-8.50781" x2="65.5859" y2="183.076" gradientUnits="userSpaceOnUse">
<stop stop-color="white"/>
<stop offset="0.5" stop-color="#D3D3D3"/>
<stop offset="1" stop-color="white"/>
</linearGradient>
<linearGradient id="paint4_linear_7238_20628" x1="-254" y1="129.848" x2="582" y2="129.847" gradientUnits="userSpaceOnUse">
<stop stop-color="white"/>
<stop offset="0.5" stop-color="#D3D3D3"/>
<stop offset="1" stop-color="white"/>
</linearGradient>
<linearGradient id="paint5_linear_7238_20628" x1="-254" y1="111.922" x2="582" y2="111.922" gradientUnits="userSpaceOnUse">
<stop stop-color="white"/>
<stop offset="0.5" stop-color="#D3D3D3"/>
<stop offset="1" stop-color="white"/>
</linearGradient>
<linearGradient id="paint6_linear_7238_20628" x1="0" y1="0.5" x2="305.04" y2="0.5" gradientUnits="userSpaceOnUse">
<stop stop-color="white"/>
<stop offset="1" stop-color="#D3D3D3"/>
</linearGradient>
<linearGradient id="paint7_linear_7238_20628" x1="0" y1="0.5" x2="305.04" y2="0.5" gradientUnits="userSpaceOnUse">
<stop stop-color="white"/>
<stop offset="1" stop-color="#D3D3D3"/>
</linearGradient>
<linearGradient id="paint8_linear_7238_20628" x1="0" y1="0.5" x2="305.04" y2="0.5" gradientUnits="userSpaceOnUse">
<stop stop-color="white"/>
<stop offset="1" stop-color="#D3D3D3"/>
</linearGradient>
<linearGradient id="paint9_linear_7238_20628" x1="0" y1="0.5" x2="191.583" y2="0.5" gradientUnits="userSpaceOnUse">
<stop stop-color="white"/>
<stop offset="0.5" stop-color="#D3D3D3"/>
<stop offset="1" stop-color="white"/>
</linearGradient>
<linearGradient id="paint10_linear_7238_20628" x1="0" y1="0.5" x2="191.583" y2="0.5" gradientUnits="userSpaceOnUse">
<stop stop-color="white"/>
<stop offset="0.5" stop-color="#D3D3D3"/>
<stop offset="1" stop-color="white"/>
</linearGradient>
<linearGradient id="paint11_linear_7238_20628" x1="243.195" y1="-9" x2="243.195" y2="183.081" gradientUnits="userSpaceOnUse">
<stop stop-color="white"/>
<stop offset="0.5" stop-color="#D3D3D3"/>
<stop offset="1" stop-color="white"/>
</linearGradient>
<linearGradient id="paint12_linear_7238_20628" x1="-220.531" y1="75.6094" x2="84.5092" y2="75.6094" gradientUnits="userSpaceOnUse">
<stop stop-color="white"/>
<stop offset="1" stop-color="#D3D3D3"/>
</linearGradient>
<linearGradient id="paint13_linear_7238_20628" x1="-220.531" y1="87.5312" x2="84.5092" y2="87.5312" gradientUnits="userSpaceOnUse">
<stop stop-color="white"/>
<stop offset="1" stop-color="#D3D3D3"/>
</linearGradient>
<linearGradient id="paint14_linear_7238_20628" x1="-220.531" y1="99.4766" x2="84.5092" y2="99.4766" gradientUnits="userSpaceOnUse">
<stop stop-color="white"/>
<stop offset="1" stop-color="#D3D3D3"/>
</linearGradient>
<linearGradient id="paint15_linear_7238_20628" x1="84" y1="-8.50781" x2="84" y2="183.076" gradientUnits="userSpaceOnUse">
<stop stop-color="white"/>
<stop offset="0.5" stop-color="#D3D3D3"/>
<stop offset="1" stop-color="white"/>
</linearGradient>
<clipPath id="clip0_7238_20628">
<rect width="328" height="174" rx="16" fill="white"/>
</clipPath>
<clipPath id="clip1_7238_20628">
<rect width="158.692" height="47.73" fill="white" transform="translate(85 63.1641)"/>
</clipPath>
</defs>
</svg>
