<svg width="328" height="174" viewBox="0 0 328 174" fill="none" xmlns="http://www.w3.org/2000/svg">
<g clip-path="url(#clip0_7238_20592)">
<rect width="328" height="174" rx="16" fill="white"/>
<line x1="-254" y1="62.9153" x2="582" y2="62.9153" stroke="url(#paint0_linear_7238_20592)" stroke-width="0.497619"/>
<line x1="-254" y1="74.8645" x2="51.0405" y2="74.8645" stroke="url(#paint1_linear_7238_20592)" stroke-width="0.497619"/>
<line y1="-0.24881" x2="305.04" y2="-0.24881" transform="matrix(-1 0 0 1 581.492 75.1133)" stroke="url(#paint2_linear_7238_20592)" stroke-width="0.497619"/>
<line x1="-254" y1="86.7824" x2="51.0405" y2="86.7824" stroke="url(#paint3_linear_7238_20592)" stroke-width="0.497619"/>
<line y1="-0.24881" x2="305.04" y2="-0.24881" transform="matrix(-1 0 0 1 581.492 87.0312)" stroke="url(#paint4_linear_7238_20592)" stroke-width="0.497619"/>
<line x1="-254" y1="98.7278" x2="51.0405" y2="98.7278" stroke="url(#paint5_linear_7238_20592)" stroke-width="0.497619"/>
<line y1="-0.24881" x2="305.04" y2="-0.24881" transform="matrix(-1 0 0 1 581.492 98.9766)" stroke="url(#paint6_linear_7238_20592)" stroke-width="0.497619"/>
<line x1="-254" y1="44.4856" x2="582" y2="44.4856" stroke="url(#paint7_linear_7238_20592)" stroke-width="0.497619"/>
<line x1="39.3426" y1="-8.51172" x2="39.3426" y2="183.072" stroke="url(#paint8_linear_7238_20592)" stroke-width="0.497619"/>
<line x1="32.8816" y1="-8.51172" x2="32.8816" y2="183.072" stroke="url(#paint9_linear_7238_20592)" stroke-width="0.497619"/>
<line y1="-0.24881" x2="191.583" y2="-0.24881" transform="matrix(2.25776e-08 1 1 -8.54932e-08 288.414 -8.51172)" stroke="url(#paint10_linear_7238_20592)" stroke-width="0.497619"/>
<line y1="-0.24881" x2="191.583" y2="-0.24881" transform="matrix(2.25776e-08 1 1 -8.54932e-08 295.367 -8.51172)" stroke="url(#paint11_linear_7238_20592)" stroke-width="0.497619"/>
<line x1="51.2801" y1="-8.51172" x2="51.2801" y2="183.072" stroke="url(#paint12_linear_7238_20592)" stroke-width="0.497619"/>
<line x1="276.702" y1="-9" x2="276.702" y2="183.081" stroke="url(#paint13_linear_7238_20592)" stroke-width="0.497619"/>
<line x1="-254" y1="129.099" x2="582" y2="129.099" stroke="url(#paint14_linear_7238_20592)" stroke-width="0.497619"/>
<line x1="-254" y1="111.173" x2="582" y2="111.173" stroke="url(#paint15_linear_7238_20592)" stroke-width="0.497619"/>
<rect x="33.125" y="44.7344" width="17.9143" height="17.9143" fill="#FDE4D5" fill-opacity="0.8"/>
<rect x="276.961" y="44.7344" width="17.9143" height="17.9143" fill="#FDE4D5" fill-opacity="0.8"/>
<rect x="39.5859" y="63.1641" width="11.4452" height="11.4452" fill="#EE7826" fill-opacity="0.5"/>
<rect x="33.125" y="111.422" width="17.9143" height="17.9143" fill="#FDE4D5" fill-opacity="0.8"/>
<rect x="276.961" y="111.422" width="17.9143" height="17.9143" fill="#FDE4D5" fill-opacity="0.8"/>
<g clip-path="url(#clip1_7238_20592)">
<path d="M115.664 63.1641H61.2275L51.5391 110.935H105.975C111.809 110.935 117.468 106.357 118.614 100.71L124.154 73.3922C125.3 67.7449 121.498 63.1666 115.661 63.1666L115.664 63.1641ZM99.6293 75.815L95.0884 98.2845C94.5642 100.875 92.0428 102.973 89.4541 102.973H76.1733L82.609 71.1268H95.8897C98.4785 71.1268 100.151 73.2249 99.6293 75.815Z" fill="#003592"/>
<path d="M197.535 63.1641H171.38L152.375 84.3697L164.093 110.935H190.245L178.527 84.3697L197.535 63.1641Z" fill="#EE7826"/>
<path d="M130.666 76.3125H147.194L140.052 110.921H123.531L130.666 76.3125Z" fill="#9DA6A8"/>
<path d="M149.904 63.1641L147.989 72.4481H131.461L133.376 63.1641H149.904Z" fill="#9DA6A8"/>
<path d="M260.023 63.1641H276.464L266.613 110.935H250.172L260.023 63.1641Z" fill="#9DA6A8"/>
<path d="M240.63 76.2447H206.113C203.157 76.2447 200.608 78.3253 200.019 81.2176L195.481 103.45C194.689 107.309 197.635 110.918 201.574 110.918H236.092C239.048 110.918 241.596 108.837 242.185 105.945L243.429 99.8482H226.326L225.654 103.163C225.425 104.314 224.404 105.151 223.225 105.151H215.309C213.737 105.151 212.566 103.715 212.88 102.176L214.031 96.4662H244.12L246.724 83.7104C247.515 79.8514 244.57 76.2422 240.63 76.2422V76.2447ZM229.329 84.9842L228.178 90.694H215.2L216.553 83.9976C216.782 82.8362 217.803 82.0094 218.982 82.0094H226.898C228.47 82.0094 229.641 83.4456 229.327 84.9842H229.329Z" fill="#9DA6A8"/>
</g>
<path d="M9.42969 48.1016L9.42969 58L8.18555 58L8.18555 49.3867L8.13086 49.3867L5.72461 50.9863L5.72461 49.7422L8.18555 48.1016L9.42969 48.1016ZM12.3418 58.082C11.8633 58.082 11.4531 57.6855 11.4668 57.1934C11.4531 56.7148 11.8633 56.3184 12.3418 56.3184C12.8203 56.3184 13.2168 56.7148 13.2168 57.1934C13.2168 57.6855 12.8203 58.082 12.3418 58.082ZM18.084 58.1367C16.293 58.1367 14.9395 57.0293 14.8711 55.5117L16.0605 55.5117C16.1563 56.4004 17.0176 57.0566 18.084 57.0566C19.3691 57.0566 20.2988 56.1133 20.2988 54.8691C20.2988 53.584 19.3281 52.6406 18.002 52.627C17.168 52.6133 16.5254 52.873 16.1563 53.5156L14.9668 53.5156L15.6641 48.1016L21.0234 48.1016L21.0234 49.1953L16.6895 49.1953L16.3203 52.0937L16.416 52.0937C16.8535 51.752 17.5234 51.5195 18.2207 51.5195C20.1074 51.5195 21.502 52.9141 21.502 54.8418C21.502 56.7559 20.0527 58.1367 18.084 58.1367ZM24.0039 48.1016L26.5195 52.1895L26.6016 52.1895L29.1309 48.1016L30.5801 48.1016L27.4766 53.0508L30.5801 58L29.1309 58L26.6016 53.9941L26.5195 53.9941L23.9902 58L22.541 58L25.7266 53.0508L22.541 48.1016L24.0039 48.1016Z" fill="#4E4E4E"/>
<path d="M281.43 136.102L281.43 146L280.186 146L280.186 137.387L280.131 137.387L277.725 138.986L277.725 137.742L280.186 136.102L281.43 136.102ZM284.342 146.082C283.863 146.082 283.453 145.686 283.467 145.193C283.453 144.715 283.863 144.318 284.342 144.318C284.82 144.318 285.217 144.715 285.217 145.193C285.217 145.686 284.82 146.082 284.342 146.082ZM290.084 146.137C288.293 146.137 286.939 145.029 286.871 143.512L288.061 143.512C288.156 144.4 289.018 145.057 290.084 145.057C291.369 145.057 292.299 144.113 292.299 142.869C292.299 141.584 291.328 140.641 290.002 140.627C289.168 140.613 288.525 140.873 288.156 141.516L286.967 141.516L287.664 136.102L293.023 136.102L293.023 137.195L288.689 137.195L288.32 140.094L288.416 140.094C288.854 139.752 289.523 139.52 290.221 139.52C292.107 139.52 293.502 140.914 293.502 142.842C293.502 144.756 292.053 146.137 290.084 146.137ZM296.004 136.102L298.52 140.189L298.602 140.189L301.131 136.102L302.58 136.102L299.477 141.051L302.58 146L301.131 146L298.602 141.994L298.52 141.994L295.99 146L294.541 146L297.727 141.051L294.541 136.102L296.004 136.102Z" fill="#4E4E4E"/>
<path d="M31.4297 27.1016L31.4297 37L30.1855 37L30.1855 28.3867L30.1309 28.3867L27.7246 29.9863L27.7246 28.7422L30.1855 27.1016L31.4297 27.1016ZM34.3418 37.082C33.8633 37.082 33.4531 36.6855 33.4668 36.1934C33.4531 35.7148 33.8633 35.3184 34.3418 35.3184C34.8203 35.3184 35.2168 35.7148 35.2168 36.1934C35.2168 36.6855 34.8203 37.082 34.3418 37.082ZM40.084 37.1367C38.293 37.1367 36.9395 36.0293 36.8711 34.5117L38.0605 34.5117C38.1563 35.4004 39.0176 36.0566 40.084 36.0566C41.3691 36.0566 42.2988 35.1133 42.2988 33.8691C42.2988 32.584 41.3281 31.6406 40.002 31.627C39.168 31.6133 38.5254 31.873 38.1563 32.5156L36.9668 32.5156L37.6641 27.1016L43.0234 27.1016L43.0234 28.1953L38.6895 28.1953L38.3203 31.0937L38.416 31.0937C38.8535 30.752 39.5234 30.5195 40.2207 30.5195C42.1074 30.5195 43.502 31.9141 43.502 33.8418C43.502 35.7559 42.0527 37.1367 40.084 37.1367ZM46.0039 27.1016L48.5195 31.1895L48.6016 31.1895L51.1309 27.1016L52.5801 27.1016L49.4766 32.0508L52.5801 37L51.1309 37L48.6016 32.9941L48.5195 32.9941L45.9902 37L44.541 37L47.7266 32.0508L44.541 27.1016L46.0039 27.1016Z" fill="#4E4E4E"/>
<path d="M301.43 115.102L301.43 125L300.186 125L300.186 116.387L300.131 116.387L297.725 117.986L297.725 116.742L300.186 115.102L301.43 115.102ZM304.342 125.082C303.863 125.082 303.453 124.686 303.467 124.193C303.453 123.715 303.863 123.318 304.342 123.318C304.82 123.318 305.217 123.715 305.217 124.193C305.217 124.686 304.82 125.082 304.342 125.082ZM310.084 125.137C308.293 125.137 306.939 124.029 306.871 122.512L308.061 122.512C308.156 123.4 309.018 124.057 310.084 124.057C311.369 124.057 312.299 123.113 312.299 121.869C312.299 120.584 311.328 119.641 310.002 119.627C309.168 119.613 308.525 119.873 308.156 120.516L306.967 120.516L307.664 115.102L313.023 115.102L313.023 116.195L308.689 116.195L308.32 119.094L308.416 119.094C308.854 118.752 309.523 118.52 310.221 118.52C312.107 118.52 313.502 119.914 313.502 121.842C313.502 123.756 312.053 125.137 310.084 125.137ZM316.004 115.102L318.52 119.189L318.602 119.189L321.131 115.102L322.58 115.102L319.477 120.051L322.58 125L321.131 125L318.602 120.994L318.52 120.994L315.99 125L314.541 125L317.727 120.051L314.541 115.102L316.004 115.102Z" fill="#4E4E4E"/>
<path d="M26.4297 64.1016L26.4297 74L25.1855 74L25.1855 65.3867L25.1309 65.3867L22.7246 66.9863L22.7246 65.7422L25.1855 64.1016L26.4297 64.1016ZM29.8613 64.1016L32.377 68.1895L32.459 68.1895L34.9883 64.1016L36.4375 64.1016L33.334 69.0508L36.4375 74L34.9883 74L32.459 69.9941L32.377 69.9941L29.8477 74L28.3984 74L31.584 69.0508L28.3984 64.1016L29.8613 64.1016Z" fill="#4E4E4E"/>
</g>
<rect x="0.5" y="0.5" width="327" height="173" rx="15.5" stroke="#E9E9E9"/>
<defs>
<linearGradient id="paint0_linear_7238_20592" x1="-254" y1="63.6641" x2="582" y2="63.6641" gradientUnits="userSpaceOnUse">
<stop stop-color="white"/>
<stop offset="0.5" stop-color="#D3D3D3"/>
<stop offset="1" stop-color="white"/>
</linearGradient>
<linearGradient id="paint1_linear_7238_20592" x1="-254" y1="75.6133" x2="51.0405" y2="75.6133" gradientUnits="userSpaceOnUse">
<stop stop-color="white"/>
<stop offset="1" stop-color="#D3D3D3"/>
</linearGradient>
<linearGradient id="paint2_linear_7238_20592" x1="0" y1="0.5" x2="305.04" y2="0.5" gradientUnits="userSpaceOnUse">
<stop stop-color="white"/>
<stop offset="1" stop-color="#D3D3D3"/>
</linearGradient>
<linearGradient id="paint3_linear_7238_20592" x1="-254" y1="87.5312" x2="51.0405" y2="87.5312" gradientUnits="userSpaceOnUse">
<stop stop-color="white"/>
<stop offset="1" stop-color="#D3D3D3"/>
</linearGradient>
<linearGradient id="paint4_linear_7238_20592" x1="0" y1="0.5" x2="305.04" y2="0.5" gradientUnits="userSpaceOnUse">
<stop stop-color="white"/>
<stop offset="1" stop-color="#D3D3D3"/>
</linearGradient>
<linearGradient id="paint5_linear_7238_20592" x1="-254" y1="99.4766" x2="51.0405" y2="99.4766" gradientUnits="userSpaceOnUse">
<stop stop-color="white"/>
<stop offset="1" stop-color="#D3D3D3"/>
</linearGradient>
<linearGradient id="paint6_linear_7238_20592" x1="0" y1="0.5" x2="305.04" y2="0.5" gradientUnits="userSpaceOnUse">
<stop stop-color="white"/>
<stop offset="1" stop-color="#D3D3D3"/>
</linearGradient>
<linearGradient id="paint7_linear_7238_20592" x1="-254" y1="45.2344" x2="582" y2="45.2344" gradientUnits="userSpaceOnUse">
<stop stop-color="white"/>
<stop offset="0.5" stop-color="#D3D3D3"/>
<stop offset="1" stop-color="white"/>
</linearGradient>
<linearGradient id="paint8_linear_7238_20592" x1="38.5938" y1="-8.51172" x2="38.5937" y2="183.072" gradientUnits="userSpaceOnUse">
<stop stop-color="white"/>
<stop offset="0.5" stop-color="#D3D3D3"/>
<stop offset="1" stop-color="white"/>
</linearGradient>
<linearGradient id="paint9_linear_7238_20592" x1="32.1328" y1="-8.51172" x2="32.1328" y2="183.072" gradientUnits="userSpaceOnUse">
<stop stop-color="white"/>
<stop offset="0.5" stop-color="#D3D3D3"/>
<stop offset="1" stop-color="white"/>
</linearGradient>
<linearGradient id="paint10_linear_7238_20592" x1="0" y1="0.5" x2="191.583" y2="0.5" gradientUnits="userSpaceOnUse">
<stop stop-color="white"/>
<stop offset="0.5" stop-color="#D3D3D3"/>
<stop offset="1" stop-color="white"/>
</linearGradient>
<linearGradient id="paint11_linear_7238_20592" x1="0" y1="0.5" x2="191.583" y2="0.5" gradientUnits="userSpaceOnUse">
<stop stop-color="white"/>
<stop offset="0.5" stop-color="#D3D3D3"/>
<stop offset="1" stop-color="white"/>
</linearGradient>
<linearGradient id="paint12_linear_7238_20592" x1="50.5312" y1="-8.51172" x2="50.5312" y2="183.072" gradientUnits="userSpaceOnUse">
<stop stop-color="white"/>
<stop offset="0.5" stop-color="#D3D3D3"/>
<stop offset="1" stop-color="white"/>
</linearGradient>
<linearGradient id="paint13_linear_7238_20592" x1="275.953" y1="-9" x2="275.953" y2="183.081" gradientUnits="userSpaceOnUse">
<stop stop-color="white"/>
<stop offset="0.5" stop-color="#D3D3D3"/>
<stop offset="1" stop-color="white"/>
</linearGradient>
<linearGradient id="paint14_linear_7238_20592" x1="-254" y1="129.848" x2="582" y2="129.847" gradientUnits="userSpaceOnUse">
<stop stop-color="white"/>
<stop offset="0.5" stop-color="#D3D3D3"/>
<stop offset="1" stop-color="white"/>
</linearGradient>
<linearGradient id="paint15_linear_7238_20592" x1="-254" y1="111.922" x2="582" y2="111.922" gradientUnits="userSpaceOnUse">
<stop stop-color="white"/>
<stop offset="0.5" stop-color="#D3D3D3"/>
<stop offset="1" stop-color="white"/>
</linearGradient>
<clipPath id="clip0_7238_20592">
<rect width="328" height="174" rx="16" fill="white"/>
</clipPath>
<clipPath id="clip1_7238_20592">
<rect width="225.135" height="47.7267" fill="white" transform="translate(51.5391 63.1641)"/>
</clipPath>
</defs>
</svg>
