<svg width="828" height="390" viewBox="0 0 828 390" fill="none" xmlns="http://www.w3.org/2000/svg">
<rect x="0.5" y="0.5" width="827" height="389" rx="29.5" fill="white"/>
<rect x="0.5" y="0.5" width="827" height="389" rx="29.5" stroke="#E9E9E9"/>
<line x1="-4.37114e-08" y1="145.5" x2="828" y2="145.5" stroke="url(#paint0_linear_7238_18326)"/>
<line y1="169.5" x2="187" y2="169.5" stroke="url(#paint1_linear_7238_18326)"/>
<line y1="-0.5" x2="188" y2="-0.5" transform="matrix(-1 0 0 1 828 170)" stroke="url(#paint2_linear_7238_18326)"/>
<line y1="193.5" x2="187" y2="193.5" stroke="url(#paint3_linear_7238_18326)"/>
<line y1="-0.5" x2="188" y2="-0.5" transform="matrix(-1 0 0 1 828 194)" stroke="url(#paint4_linear_7238_18326)"/>
<line y1="217.5" x2="187" y2="217.5" stroke="url(#paint5_linear_7238_18326)"/>
<line y1="-0.5" x2="188" y2="-0.5" transform="matrix(-1 0 0 1 828 218)" stroke="url(#paint6_linear_7238_18326)"/>
<line y1="108.5" x2="828" y2="108.5" stroke="url(#paint7_linear_7238_18326)"/>
<line x1="163.5" y1="2" x2="163.5" y2="387" stroke="url(#paint8_linear_7238_18326)"/>
<line x1="150.5" y1="2" x2="150.5" y2="387" stroke="url(#paint9_linear_7238_18326)"/>
<line y1="-0.5" x2="385" y2="-0.5" transform="matrix(2.25776e-08 1 1 -8.54932e-08 664 2)" stroke="url(#paint10_linear_7238_18326)"/>
<line y1="-0.5" x2="385" y2="-0.5" transform="matrix(2.25776e-08 1 1 -8.54932e-08 678 2)" stroke="url(#paint11_linear_7238_18326)"/>
<line x1="187.5" y1="2" x2="187.5" y2="387" stroke="url(#paint12_linear_7238_18326)"/>
<line x1="640.5" y1="1" x2="640.5" y2="387" stroke="url(#paint13_linear_7238_18326)"/>
<line x1="2.91282e-08" y1="278.5" x2="828" y2="278.5" stroke="url(#paint14_linear_7238_18326)"/>
<line y1="242.5" x2="828" y2="242.5" stroke="url(#paint15_linear_7238_18326)"/>
<rect x="151" y="109" width="36" height="36" fill="#FDE4D5" fill-opacity="0.8"/>
<rect x="641" y="109" width="36" height="36" fill="#FDE4D5" fill-opacity="0.8"/>
<rect x="164" y="146" width="23" height="23" fill="#EE7826" fill-opacity="0.5"/>
<rect x="151" y="243" width="36" height="36" fill="#FDE4D5" fill-opacity="0.8"/>
<rect x="641" y="243" width="36" height="36" fill="#FDE4D5" fill-opacity="0.8"/>
<g clip-path="url(#clip0_7238_18326)">
<path d="M316.863 146H207.47L188 242H297.393C309.117 242 320.49 232.8 322.792 221.451L333.924 166.554C336.227 155.205 328.587 146.005 316.858 146.005L316.863 146ZM284.641 171.423L275.515 216.577C274.462 221.782 269.395 225.998 264.193 225.998H237.504L250.437 162.002H277.126C282.328 162.002 285.689 166.218 284.641 171.423Z" fill="#003592"/>
<path d="M481.415 146H428.856L390.664 188.614L414.212 242H466.767L443.218 188.614L481.415 146Z" fill="#EE7826"/>
<path d="M347.009 172.445H380.225L365.872 241.993H332.672L347.009 172.445Z" fill="#9DA6A8"/>
<path d="M385.68 146L381.832 164.657H348.617L352.465 146H385.68Z" fill="#9DA6A8"/>
<path d="M606.96 146H639.999L620.204 242H587.164L606.96 146Z" fill="#9DA6A8"/>
<path d="M567.983 172.318H498.618C492.678 172.318 487.556 176.499 486.372 182.311L477.252 226.988C475.661 234.743 481.581 241.996 489.497 241.996H558.863C564.802 241.996 569.924 237.815 571.108 232.003L573.606 219.75H539.237L537.888 226.411C537.426 228.725 535.375 230.406 533.007 230.406H517.099C513.938 230.406 511.586 227.52 512.218 224.428L514.53 212.954H574.996L580.228 187.32C581.819 179.565 575.899 172.312 567.983 172.312V172.318ZM545.272 189.88L542.96 201.354H516.878L519.597 187.898C520.059 185.564 522.111 183.902 524.478 183.902H540.386C543.547 183.902 545.899 186.788 545.267 189.88H545.272Z" fill="#9DA6A8"/>
</g>
<path d="M112.297 120.687L112.297 132L110.563 132L110.563 122.406L110.5 122.406L107.797 124.172L107.797 122.531L110.609 120.687L112.297 120.687ZM115.641 132.109C115.031 132.109 114.516 131.609 114.531 131C114.516 130.391 115.031 129.891 115.641 129.891C116.234 129.891 116.75 130.391 116.75 131C116.75 131.609 116.234 132.109 115.641 132.109ZM122.422 132.156C120.281 132.156 118.672 130.844 118.594 129.047L120.266 129.047C120.359 130.016 121.281 130.719 122.422 130.719C123.797 130.719 124.781 129.719 124.781 128.375C124.781 127 123.766 126 122.344 125.984C121.438 125.984 120.75 126.281 120.359 126.984L118.734 126.984L119.469 120.687L125.875 120.687L125.875 122.156L120.891 122.156L120.516 125.328L120.625 125.328C121.094 124.875 121.891 124.562 122.75 124.562C124.875 124.562 126.453 126.141 126.453 128.328C126.453 130.562 124.781 132.156 122.422 132.156ZM129.641 120.687L132.328 125.094L132.422 125.094L135.125 120.687L137.109 120.687L133.578 126.344L137.141 132L135.125 132L132.422 127.641L132.328 127.641L129.609 132L127.609 132L131.219 126.344L127.625 120.687L129.641 120.687Z" fill="#4E4E4E"/>
<path d="M646.297 295.687L646.297 307L644.563 307L644.563 297.406L644.5 297.406L641.797 299.172L641.797 297.531L644.609 295.687L646.297 295.687ZM649.641 307.109C649.031 307.109 648.516 306.609 648.531 306C648.516 305.391 649.031 304.891 649.641 304.891C650.234 304.891 650.75 305.391 650.75 306C650.75 306.609 650.234 307.109 649.641 307.109ZM656.422 307.156C654.281 307.156 652.672 305.844 652.594 304.047L654.266 304.047C654.359 305.016 655.281 305.719 656.422 305.719C657.797 305.719 658.781 304.719 658.781 303.375C658.781 302 657.766 301 656.344 300.984C655.438 300.984 654.75 301.281 654.359 301.984L652.734 301.984L653.469 295.687L659.875 295.687L659.875 297.156L654.891 297.156L654.516 300.328L654.625 300.328C655.094 299.875 655.891 299.562 656.75 299.562C658.875 299.562 660.453 301.141 660.453 303.328C660.453 305.562 658.781 307.156 656.422 307.156ZM663.641 295.687L666.328 300.094L666.422 300.094L669.125 295.687L671.109 295.687L667.578 301.344L671.141 307L669.125 307L666.422 302.641L666.328 302.641L663.609 307L661.609 307L665.219 301.344L661.625 295.687L663.641 295.687Z" fill="#4E4E4E"/>
<path d="M156.297 80.6875L156.297 92L154.563 92L154.563 82.4062L154.5 82.4062L151.797 84.1719L151.797 82.5312L154.609 80.6875L156.297 80.6875ZM159.641 92.1094C159.031 92.1094 158.516 91.6094 158.531 91C158.516 90.3906 159.031 89.8906 159.641 89.8906C160.234 89.8906 160.75 90.3906 160.75 91C160.75 91.6094 160.234 92.1094 159.641 92.1094ZM166.422 92.1562C164.281 92.1562 162.672 90.8437 162.594 89.0469L164.266 89.0469C164.359 90.0156 165.281 90.7187 166.422 90.7187C167.797 90.7187 168.781 89.7187 168.781 88.375C168.781 87 167.766 86 166.344 85.9844C165.438 85.9844 164.75 86.2812 164.359 86.9844L162.734 86.9844L163.469 80.6875L169.875 80.6875L169.875 82.1562L164.891 82.1562L164.516 85.3281L164.625 85.3281C165.094 84.875 165.891 84.5625 166.75 84.5625C168.875 84.5625 170.453 86.1406 170.453 88.3281C170.453 90.5625 168.781 92.1562 166.422 92.1562ZM173.641 80.6875L176.328 85.0937L176.422 85.0937L179.125 80.6875L181.109 80.6875L177.578 86.3437L181.141 92L179.125 92L176.422 87.6406L176.328 87.6406L173.609 92L171.609 92L175.219 86.3437L171.625 80.6875L173.641 80.6875Z" fill="#4E4E4E"/>
<path d="M690.297 252.687L690.297 264L688.563 264L688.563 254.406L688.5 254.406L685.797 256.172L685.797 254.531L688.609 252.687L690.297 252.687ZM693.641 264.109C693.031 264.109 692.516 263.609 692.531 263C692.516 262.391 693.031 261.891 693.641 261.891C694.234 261.891 694.75 262.391 694.75 263C694.75 263.609 694.234 264.109 693.641 264.109ZM700.422 264.156C698.281 264.156 696.672 262.844 696.594 261.047L698.266 261.047C698.359 262.016 699.281 262.719 700.422 262.719C701.797 262.719 702.781 261.719 702.781 260.375C702.781 259 701.766 258 700.344 257.984C699.438 257.984 698.75 258.281 698.359 258.984L696.734 258.984L697.469 252.687L703.875 252.687L703.875 254.156L698.891 254.156L698.516 257.328L698.625 257.328C699.094 256.875 699.891 256.562 700.75 256.562C702.875 256.562 704.453 258.141 704.453 260.328C704.453 262.562 702.781 264.156 700.422 264.156ZM707.641 252.687L710.328 257.094L710.422 257.094L713.125 252.687L715.109 252.687L711.578 258.344L715.141 264L713.125 264L710.422 259.641L710.328 259.641L707.609 264L705.609 264L709.219 258.344L705.625 252.687L707.641 252.687Z" fill="#4E4E4E"/>
<path d="M140.297 152.687L140.297 164L138.563 164L138.563 154.406L138.5 154.406L135.797 156.172L135.797 154.531L138.609 152.687L140.297 152.687ZM144.531 152.687L147.219 157.094L147.313 157.094L150.016 152.687L152 152.687L148.469 158.344L152.031 164L150.016 164L147.313 159.641L147.219 159.641L144.5 164L142.5 164L146.109 158.344L142.516 152.687L144.531 152.687Z" fill="#4E4E4E"/>
<defs>
<linearGradient id="paint0_linear_7238_18326" x1="4.37114e-08" y1="146.5" x2="828" y2="146.5" gradientUnits="userSpaceOnUse">
<stop stop-color="white"/>
<stop offset="0.5" stop-color="#D3D3D3"/>
<stop offset="1" stop-color="white"/>
</linearGradient>
<linearGradient id="paint1_linear_7238_18326" x1="0" y1="170.5" x2="187" y2="170.5" gradientUnits="userSpaceOnUse">
<stop stop-color="white"/>
<stop offset="1" stop-color="#D3D3D3"/>
</linearGradient>
<linearGradient id="paint2_linear_7238_18326" x1="0" y1="0.5" x2="188" y2="0.5" gradientUnits="userSpaceOnUse">
<stop stop-color="white"/>
<stop offset="1" stop-color="#D3D3D3"/>
</linearGradient>
<linearGradient id="paint3_linear_7238_18326" x1="0" y1="194.5" x2="187" y2="194.5" gradientUnits="userSpaceOnUse">
<stop stop-color="white"/>
<stop offset="1" stop-color="#D3D3D3"/>
</linearGradient>
<linearGradient id="paint4_linear_7238_18326" x1="0" y1="0.5" x2="188" y2="0.5" gradientUnits="userSpaceOnUse">
<stop stop-color="white"/>
<stop offset="1" stop-color="#D3D3D3"/>
</linearGradient>
<linearGradient id="paint5_linear_7238_18326" x1="0" y1="218.5" x2="187" y2="218.5" gradientUnits="userSpaceOnUse">
<stop stop-color="white"/>
<stop offset="1" stop-color="#D3D3D3"/>
</linearGradient>
<linearGradient id="paint6_linear_7238_18326" x1="0" y1="0.5" x2="188" y2="0.5" gradientUnits="userSpaceOnUse">
<stop stop-color="white"/>
<stop offset="1" stop-color="#D3D3D3"/>
</linearGradient>
<linearGradient id="paint7_linear_7238_18326" x1="0" y1="109.5" x2="828" y2="109.5" gradientUnits="userSpaceOnUse">
<stop stop-color="white"/>
<stop offset="0.5" stop-color="#D3D3D3"/>
<stop offset="1" stop-color="white"/>
</linearGradient>
<linearGradient id="paint8_linear_7238_18326" x1="162.5" y1="2" x2="162.5" y2="387" gradientUnits="userSpaceOnUse">
<stop stop-color="white"/>
<stop offset="0.5" stop-color="#D3D3D3"/>
<stop offset="1" stop-color="white"/>
</linearGradient>
<linearGradient id="paint9_linear_7238_18326" x1="149.5" y1="2" x2="149.5" y2="387" gradientUnits="userSpaceOnUse">
<stop stop-color="white"/>
<stop offset="0.5" stop-color="#D3D3D3"/>
<stop offset="1" stop-color="white"/>
</linearGradient>
<linearGradient id="paint10_linear_7238_18326" x1="0" y1="0.5" x2="385" y2="0.5" gradientUnits="userSpaceOnUse">
<stop stop-color="white"/>
<stop offset="0.5" stop-color="#D3D3D3"/>
<stop offset="1" stop-color="white"/>
</linearGradient>
<linearGradient id="paint11_linear_7238_18326" x1="0" y1="0.5" x2="385" y2="0.5" gradientUnits="userSpaceOnUse">
<stop stop-color="white"/>
<stop offset="0.5" stop-color="#D3D3D3"/>
<stop offset="1" stop-color="white"/>
</linearGradient>
<linearGradient id="paint12_linear_7238_18326" x1="186.5" y1="2" x2="186.5" y2="387" gradientUnits="userSpaceOnUse">
<stop stop-color="white"/>
<stop offset="0.5" stop-color="#D3D3D3"/>
<stop offset="1" stop-color="white"/>
</linearGradient>
<linearGradient id="paint13_linear_7238_18326" x1="639.5" y1="1" x2="639.5" y2="387" gradientUnits="userSpaceOnUse">
<stop stop-color="white"/>
<stop offset="0.5" stop-color="#D3D3D3"/>
<stop offset="1" stop-color="white"/>
</linearGradient>
<linearGradient id="paint14_linear_7238_18326" x1="-2.91282e-08" y1="279.5" x2="828" y2="279.5" gradientUnits="userSpaceOnUse">
<stop stop-color="white"/>
<stop offset="0.5" stop-color="#D3D3D3"/>
<stop offset="1" stop-color="white"/>
</linearGradient>
<linearGradient id="paint15_linear_7238_18326" x1="0" y1="243.5" x2="828" y2="243.5" gradientUnits="userSpaceOnUse">
<stop stop-color="white"/>
<stop offset="0.5" stop-color="#D3D3D3"/>
<stop offset="1" stop-color="white"/>
</linearGradient>
<clipPath id="clip0_7238_18326">
<rect width="452" height="96" fill="white" transform="translate(188 146)"/>
</clipPath>
</defs>
</svg>
