<svg width="106" height="106" viewBox="0 0 106 106" fill="none" xmlns="http://www.w3.org/2000/svg">
<path d="M41.8043 75.1325C39.3462 79.8656 36.8881 84.5986 34.4301 89.3317C36.6117 90.4649 38.8987 91.4002 41.2519 92.12C45.1162 93.3039 49.1597 93.8982 53.1782 93.8964C54.876 93.8962 56.5634 93.7927 58.2516 93.5826C78.0456 91.4715 94.2889 73.0559 93.9017 53.1728C94.241 34.0923 79.348 16.2334 60.5031 13.1076C58.0837 12.6674 55.6271 12.449 53.1782 12.4492C53.1782 17.7826 53.1782 23.1159 53.1782 28.4492C54.6816 28.4492 56.1744 28.5828 57.6401 28.8494C69.0212 30.7254 78.1305 41.595 77.9017 53.1728C78.1605 65.2349 68.231 76.4455 56.2745 77.7052C55.2491 77.8328 54.2204 77.8963 53.1782 77.8964C50.7115 77.8969 48.2692 77.5352 45.9324 76.8199C44.5098 76.3847 43.1268 75.8193 41.8043 75.1325Z" fill="white"/>
<path opacity="0.4" d="M38.3343 82.3446C27.7214 76.934 20.4531 65.9022 20.4531 53.1728C20.4531 35.1001 35.104 20.4492 53.1767 20.4492" stroke="white" stroke-width="16" stroke-dasharray="8.18 8.18"/>
</svg>
