<svg width="86" height="86" viewBox="0 0 86 86" fill="none" xmlns="http://www.w3.org/2000/svg">
<path d="M60.2222 60.2222L74 74M67.1111 39.5556C67.1111 32.2474 64.2079 25.2385 59.0403 20.0708C53.8726 14.9032 46.8637 12 39.5556 12C32.2474 12 25.2385 14.9032 20.0708 20.0708C14.9032 25.2385 12 32.2474 12 39.5556C12 46.8637 14.9032 53.8726 20.0708 59.0403C25.2385 64.2079 32.2474 67.1111 39.5556 67.1111C46.8637 67.1111 53.8726 64.2079 59.0403 59.0403C64.2079 53.8726 67.1111 46.8637 67.1111 39.5556Z" stroke="white" stroke-width="6" stroke-linecap="round" stroke-linejoin="round"/>
<path d="M54.2399 43.0526C55.3215 36.9875 52.5855 30.6274 46.942 27.3692C42.9211 25.0477 38.2746 24.7918 34.2309 26.272" stroke="white" stroke-width="6" stroke-linecap="round"/>
</svg>
