<svg width="464" height="250" viewBox="0 0 464 250" fill="none" xmlns="http://www.w3.org/2000/svg">
<rect x="57" y="25" width="149" height="135" rx="9" fill="#FAC699"/>
<path d="M132 153.569L131.997 160.003" stroke="white" stroke-width="3"/>
<path d="M132.004 142.558L132.001 148.991" stroke="white" stroke-width="3"/>
<path d="M93.3125 96.667H98.6234H103.934V101.548H93.3125V96.667Z" fill="#FBFBFB"/>
<path d="M98.625 94.8145C98.625 93.986 97.9534 93.3145 97.125 93.3145H89.5031C88.6747 93.3145 88.0031 93.986 88.0031 94.8145V96.3037C88.0031 99.2032 90.3536 101.554 93.2531 101.554H97.125C97.9534 101.554 98.625 100.882 98.625 100.054V94.8145Z" fill="#FBFBFB"/>
<path d="M169.988 96.667H164.677H159.366V101.548H169.988V96.667Z" fill="#FBFBFB"/>
<path d="M164.676 94.8135C164.676 93.985 165.347 93.3135 166.176 93.3135H173.798C174.626 93.3135 175.298 93.985 175.298 94.8135V96.3027C175.298 99.2022 172.947 101.553 170.048 101.553H166.176C165.347 101.553 164.676 100.881 164.676 100.053V94.8135Z" fill="#FBFBFB"/>
<path d="M171.352 136.591C171.352 134.934 170.008 133.591 168.352 133.591H158.87C157.213 133.591 155.87 134.934 155.87 136.591V140.217C155.87 141.873 157.213 143.217 158.87 143.217H168.352C170.008 143.217 171.352 141.873 171.352 140.217V136.591Z" fill="#191720"/>
<path d="M108.906 136.591C108.906 134.934 107.563 133.591 105.906 133.591H96.4246C94.7677 133.591 93.4246 134.934 93.4246 136.591V140.217C93.4246 141.873 94.7677 143.217 96.4246 143.217H105.906C107.563 143.217 108.906 141.873 108.906 140.217V136.591Z" fill="#191720"/>
<path d="M93.4599 136.938H170.169C171.77 136.938 173.09 135.68 173.165 134.08L174.203 112.213C174.318 109.79 173.255 107.462 171.348 105.962L165.095 101.045L131.814 101.044H98.6649L92.3222 105.963C90.3914 107.46 89.3111 109.805 89.427 112.245L90.4633 134.08C90.5392 135.68 91.8584 136.938 93.4599 136.938Z" fill="#FBFBFB"/>
<path d="M153.102 119.304H174.185L173.881 125.982H156.102C154.445 125.982 153.102 124.639 153.102 122.982V119.304Z" fill="#BCC0C6"/>
<path d="M110.531 119.414H89.8524L90.1614 126.092H107.531C109.188 126.092 110.531 124.749 110.531 123.092V119.414Z" fill="#BCC0C6"/>
<path d="M165.169 101.045L167.852 103.231C170.039 105.014 168.779 108.557 165.956 108.557H97.7638C94.9313 108.557 93.6766 104.993 95.8844 103.218L98.5899 101.044L131.814 101.044L165.169 101.045Z" fill="#FBFBFB"/>
<path d="M105.902 81.5558C106.102 80.9888 106.591 80.5727 107.183 80.4659C123.55 77.5112 140.315 77.5112 156.683 80.4659C157.275 80.5727 157.763 80.9888 157.964 81.5558L165.022 101.555H98.8438L105.902 81.5558Z" fill="#FBFBFB"/>
<path d="M108.44 84.1538C108.732 83.3279 109.444 82.7219 110.305 82.5664C124.609 79.9844 139.258 79.9844 153.561 82.5664C154.423 82.7219 155.135 83.3279 155.427 84.1538L161.213 100.55C161.386 101.038 161.024 101.549 160.506 101.549H103.361C102.843 101.549 102.481 101.038 102.654 100.55L108.44 84.1538Z" fill="black"/>
<path d="M145.172 127.665C145.172 127.251 144.836 126.915 144.422 126.915H119.21C118.796 126.915 118.46 127.251 118.46 127.665V133.678C118.46 134.092 118.796 134.428 119.21 134.428H144.422C144.836 134.428 145.172 134.092 145.172 133.678V127.665Z" fill="black"/>
<path d="M123 57.2295L140.958 39.1239C141.355 38.7231 142.009 39.1853 141.763 39.6936L135.379 52.9069H146L127.766 70.9478C127.366 71.3431 126.719 70.8801 126.964 70.3743L133.335 57.2295H123Z" fill="white"/>
<rect opacity="0.9" x="223" y="160" width="184" height="70" rx="9" fill="#F3782B"/>
<path d="M269.879 156.027V166.367L253.619 173.978L247.932 166.513C246.243 164.296 246.581 161.146 248.701 159.337L256.944 152.305C257.23 152.061 257.35 151.675 257.254 151.312L255.645 145.271C255.152 143.419 256.251 141.516 258.101 141.017C259.961 140.516 261.873 141.62 262.369 143.481L264.12 150.059C264.176 150.27 264.298 150.457 264.468 150.594L269.04 154.275C269.57 154.702 269.879 155.346 269.879 156.027Z" fill="white"/>
<path d="M286.042 184.016L321.242 155.393C330.011 148.262 343.191 151.859 347.122 162.455L369.177 221.906C370.631 225.826 367.732 229.993 363.552 229.993H313.189H297.269V216.123L283.903 219.161L275.201 220.215C271.634 220.648 268.197 218.721 266.704 215.452L248.596 175.799C248.424 175.423 248.59 174.979 248.966 174.806L274.783 162.965C275.151 162.796 275.587 162.95 275.767 163.313L286.042 184.016Z" fill="black"/>
<path d="M360.355 129.847C360.355 142.399 350.179 152.575 337.627 152.575C325.074 152.575 314.898 142.399 314.898 129.847C314.898 117.294 325.074 107.118 337.627 107.118C350.179 107.118 360.355 117.294 360.355 129.847Z" fill="white"/>
<path d="M311.755 125.632L318.557 119.315L316.092 129.86L311.827 126.79C311.442 126.514 311.408 125.954 311.755 125.632Z" fill="white"/>
<path d="M337.635 107.117C350.187 107.117 360.363 117.293 360.363 129.846C360.363 142.398 350.187 152.574 337.635 152.574C335.606 152.574 333.639 152.306 331.768 151.808L336.299 140.35L337.804 140.655C339.291 140.957 340.785 140.169 341.374 138.771C342.154 136.92 341.048 134.818 339.081 134.413L338.527 134.299L341.144 128.293L319.043 116.77C323.157 110.931 329.95 107.117 337.635 107.117Z" fill="black"/>
<circle cx="262.463" cy="97.9304" r="27.6306" fill="white"/>
<g clip-path="url(#clip0_6_5566)">
<path d="M273.389 96.9624C269.654 94.422 264.867 95.4607 262.358 99.2775C260.262 102.469 257.096 102.863 255.87 102.863C251.878 102.863 249.137 100.053 248.33 97.1438C248.33 97.1438 248.311 97.0938 248.305 97.0625C248.299 97.0312 248.286 96.9999 248.28 96.9624C247.961 95.7485 247.886 95.1666 247.886 93.8777C247.886 86.9199 255.025 79.1738 265.305 79.1738C275.586 79.1738 281.855 87.189 283.407 91.6377C283.382 91.5626 283.357 91.4813 283.332 91.3999C280.335 82.7027 272.075 76.4395 262.346 76.4395C250.107 76.4395 240.184 86.363 240.184 98.6017C240.184 109.545 248.08 118.912 259.023 118.912C267.752 118.912 273.621 114.019 276.311 107.268C277.788 103.576 276.743 99.2399 273.389 96.9624Z" fill="#003763"/>
<path d="M283.537 92.0822C282.242 87.7398 276.173 79.1865 265.298 79.1865C255.018 79.1865 247.879 86.9327 247.879 93.8905C247.879 95.1794 247.954 95.7613 248.273 96.9751C248.142 96.4433 248.073 95.9115 248.073 95.3921C248.073 88.1465 255.325 83.1284 262.783 83.1284C272.876 83.1284 281.06 91.3126 281.06 101.405C281.06 109.32 276.505 116.165 269.891 119.457C278.419 116.372 284.514 108.206 284.514 98.6145C284.514 96.3432 284.207 94.341 283.537 92.0947V92.0822Z" fill="#E4022D"/>
</g>
<path d="M275.301 203.039C274.798 201.46 275.67 199.773 277.249 199.27L306.63 189.908C308.209 189.405 309.896 190.277 310.399 191.856L315.285 207.191L280.188 218.374L275.301 203.039Z" fill="#F3D5C3"/>
<path fill-rule="evenodd" clip-rule="evenodd" d="M297.678 190.298C298.072 190.173 298.494 190.39 298.619 190.785L299.363 193.116C299.488 193.51 299.27 193.932 298.875 194.058L285.325 198.374C284.931 198.5 284.509 198.283 284.383 197.888L283.641 195.556C283.515 195.161 283.734 194.74 284.128 194.615L297.678 190.298Z" fill="#F3782B"/>
<path d="M279.09 211.924L287.761 216.383L296.229 229.999H273.237L270.356 224.022C269.184 221.591 270.402 218.682 272.956 217.81L273.237 217.714V215.219C273.237 214.015 273.958 212.927 275.066 212.457L276.548 211.829C277.367 211.482 278.299 211.517 279.09 211.924Z" fill="white"/>
<defs>
<clipPath id="clip0_6_5566">
<rect width="44.3308" height="43.0106" fill="white" transform="translate(240.184 76.4365)"/>
</clipPath>
</defs>
</svg>
