<svg width="464" height="250" viewBox="0 0 464 250" fill="none" xmlns="http://www.w3.org/2000/svg">
<path d="M362.003 170.216C362.003 136.374 348.42 103.918 324.243 79.9878C300.065 56.0579 267.274 42.6143 233.082 42.6143C198.889 42.6143 166.098 56.0579 141.92 79.9878C117.743 103.918 104.16 136.374 104.16 170.216" stroke="url(#paint0_linear_6_5556)" stroke-width="3.52004" stroke-dasharray="5.79 3.47"/>
<path d="M158.133 123.285C156.841 122.365 156.539 120.572 157.458 119.281L160.595 114.876C166.232 106.961 177.223 105.114 185.145 110.752L218.946 134.807L203.938 155.881L158.133 123.285Z" fill="#57E4A2"/>
<path d="M220.243 115.804L202.797 117.831C197.202 118.481 193.227 122.634 194.525 128.078C195.646 132.779 200.245 136.039 205.156 135.464C205.156 135.464 213.519 134.569 213.678 134.564C225.049 133.947 229.035 138.14 230.158 139.808C230.416 140.191 230.808 140.496 231.262 140.604C232.435 140.876 233.465 139.931 233.294 138.78L232.308 132.309L231.102 124.393L230.904 123.097C230.124 117.975 225.43 115.197 220.233 115.796L220.243 115.804Z" fill="white"/>
<path d="M202.207 115.581C197.483 115.828 193.695 119.597 193.44 124.3L193.092 130.729C193.006 132.329 194.253 133.681 195.861 133.73L197.147 133.768L189.48 145.42L212.21 161.454C215.286 163.624 219.115 164.469 222.839 163.799L238.382 161.004C242.058 160.608 246.003 159.93 250.264 158.928C250.284 158.924 250.329 158.893 250.399 158.843L251.496 158.646C254.637 158.081 257.745 159.729 259.017 162.632L262.861 171.403L302.253 171.359L302.141 171.182L306.96 171.178L285.817 138.958L270.698 118.306C268.084 114.735 263.834 112.708 259.383 112.909L212.214 115.037L212.2 115.057L202.207 115.581Z" fill="#57E4A2"/>
<path d="M190.512 131.369L190.71 127.87C190.929 123.971 192.94 120.553 195.932 118.411L197.572 119.477C194.69 121.265 192.717 124.375 192.516 127.96L192.319 131.458C192.235 132.952 193.385 134.222 194.884 134.291L234.353 136.119L234.258 137.917L194.789 136.089C192.29 135.973 190.373 133.858 190.512 131.369Z" fill="#D6FFEC"/>
<path d="M360.833 208.557C360.833 220.763 353.23 227.798 343.351 227.798C333.368 227.798 325.816 220.712 325.816 208.557C325.816 196.35 333.368 189.315 343.351 189.315C353.23 189.315 360.833 196.35 360.833 208.557ZM352.92 208.557C352.92 200.539 349.144 196.195 343.351 196.195C337.558 196.195 333.73 200.539 333.73 208.557C333.73 216.574 337.558 220.919 343.351 220.919C349.144 220.919 352.92 216.574 352.92 208.557Z" fill="#09CF72"/>
<path d="M293.07 227.278V189.83H307.76C316.294 189.83 321.156 194.64 321.156 202.037C321.156 207.158 318.803 210.882 314.536 212.692L322.501 227.278H313.915L306.777 213.985H300.829V227.278H293.07ZM300.829 207.675H306.312C310.915 207.675 313.139 205.761 313.139 202.037C313.139 198.261 310.915 196.192 306.312 196.192H300.829V207.675Z" fill="#09CF72"/>
<path d="M261.891 227.278V189.83H287.028V196.244H269.649V205.347H285.735V211.761H269.649V220.864H287.08V227.278H261.891Z" fill="#09CF72"/>
<path d="M227.489 227.278V222.623L246.265 196.244H227.438V189.83H255.989V194.485L237.265 220.864H256.041V227.278H227.489Z" fill="#09CF72"/>
<path d="M221.432 205.505V211.608H204.363V205.505H221.432Z" fill="#09CF72"/>
<path d="M170.285 196.244V189.83H200.957V196.244H189.475V227.278H181.768V196.244H170.285Z" fill="#09CF72"/>
<path d="M140.535 227.278V189.83H165.673V196.244H148.294V205.347H164.38V211.761H148.294V220.864H165.725V227.278H140.535Z" fill="#09CF72"/>
<path d="M134.229 189.83V227.278H127.505L111.057 203.485H110.747V227.278H102.988V189.83H109.816L126.161 213.623H126.523V189.83H134.229Z" fill="#09CF72"/>
<path d="M292.414 26.1523C292.414 55.3133 268.774 78.9531 239.613 78.9531H228.625C234.783 58.0469 260.608 35.9566 277.941 23.8535C244.746 42.3422 230.187 63.951 224.527 76.0752V64.4707C224.527 35.3098 248.167 11.6699 277.328 11.6699H292.414V26.1523Z" fill="#09CF72"/>
<path d="M174.317 47.5918C174.318 67.0322 190.077 82.7917 209.518 82.792H217.875C213.671 68.5135 196.034 53.4254 184.195 45.1592C206.877 57.7923 216.819 72.5584 220.68 80.8359V72.043C220.68 52.6024 204.92 36.8419 185.479 36.8418H174.317V47.5918Z" fill="#09CF72"/>
<defs>
<linearGradient id="paint0_linear_6_5556" x1="233.082" y1="170.216" x2="233.082" y2="42.6143" gradientUnits="userSpaceOnUse">
<stop stop-color="#28CB7F"/>
<stop offset="1" stop-color="#28CB7F" stop-opacity="0"/>
</linearGradient>
</defs>
</svg>
