<svg width="270" height="48" viewBox="0 0 270 48" fill="none" xmlns="http://www.w3.org/2000/svg">
<path d="M269.804 47.5056L264.586 37.2051L258.274 46.8747L269.804 47.5056ZM0.501309 23.1535L1.00306 24.0185C1.57719 23.6855 2.1539 23.3567 2.73314 23.0322L2.2444 22.1598L1.75566 21.2874C1.16775 21.6167 0.58237 21.9504 -0.00044437 22.2885L0.501309 23.1535ZM5.77577 20.2496L6.2386 21.136C7.41608 20.5212 8.6033 19.9231 9.7999 19.3415L9.36272 18.4421L8.92554 17.5427C7.71193 18.1326 6.50759 18.7393 5.31293 19.3631L5.77577 20.2496ZM12.9953 16.7389L13.4072 17.6502C14.6187 17.1026 15.8391 16.5711 17.0682 16.0554L16.6813 15.1333L16.2944 14.2112C15.0488 14.7338 13.8117 15.2725 12.5834 15.8277L12.9953 16.7389ZM20.3985 13.6312L20.761 14.5632C21.9996 14.0815 23.2463 13.6152 24.5008 13.1641L24.1624 12.2231L23.8239 11.2821C22.5536 11.7389 21.2909 12.2112 20.0361 12.6992L20.3985 13.6312ZM27.9553 10.9121L28.2703 11.8612C29.5307 11.443 30.7983 11.0394 32.0729 10.6502L31.7809 9.69375L31.4888 8.73735C30.1991 9.13116 28.9162 9.53963 27.6404 9.96302L27.9553 10.9121ZM35.6384 8.56509L35.9081 9.52805C37.1856 9.17027 38.4697 8.82643 39.7598 8.49626L39.5119 7.52748L39.2639 6.5587C37.9595 6.89253 36.661 7.24026 35.3687 7.60214L35.6384 8.56509ZM43.4214 6.57262L43.6481 7.54658C44.9397 7.24596 46.237 6.95856 47.5395 6.68414L47.3334 5.70562L47.1272 4.7271C45.8111 5.00437 44.5002 5.2948 43.1947 5.59865L43.4214 6.57262ZM51.2747 4.91746L51.4608 5.89999C52.7666 5.65261 54.0774 5.41785 55.3927 5.19546L55.226 4.20946L55.0593 3.22345C53.7312 3.448 52.4075 3.68508 51.0886 3.93493L51.2747 4.91746ZM59.1901 3.57827L59.338 4.56728C60.6553 4.37032 61.9769 4.18537 63.3023 4.01221L63.1728 3.02064L63.0432 2.02907C61.7058 2.2038 60.372 2.39045 59.0422 2.58927L59.1901 3.57827ZM67.1527 2.53695L67.2646 3.53068C68.5889 3.38165 69.9166 3.24402 71.2476 3.11758L71.153 2.12206L71.0584 1.12654C69.7161 1.25407 68.3769 1.39288 67.0409 1.54322L67.1527 2.53695ZM75.1494 1.7763L75.2272 2.77326C76.5548 2.66954 77.8851 2.57662 79.2178 2.49427L79.1561 1.49617L79.0944 0.498074C77.751 0.581085 76.4099 0.674761 75.0715 0.779337L75.1494 1.7763ZM83.1683 1.28015L83.2142 2.2791C84.5437 2.21797 85.8753 2.16707 87.2087 2.12618L87.178 1.12665L87.1474 0.127121C85.804 0.168322 84.4622 0.21961 83.1224 0.28121L83.1683 1.28015ZM91.198 1.03341L91.2137 2.03329C92.5448 2.01227 93.8773 2.00094 95.2109 1.99911L95.2095 0.999105L95.2082 -0.000893778C93.8651 0.000958564 92.523 0.0123612 91.1822 0.0335364L91.198 1.03341ZM99.2264 1.02188L99.2137 2.0218C100.547 2.03867 101.881 2.06477 103.216 2.09988L103.242 1.10023L103.268 0.100572C101.925 0.0652236 100.582 0.0389437 99.239 0.0219563L99.2264 1.02188ZM107.255 1.2326L107.215 2.23182C108.549 2.28463 109.882 2.34622 111.216 2.41635L111.268 1.41773L111.321 0.419107C109.979 0.348528 108.637 0.286544 107.294 0.233382L107.255 1.2326ZM115.277 1.65406L115.211 2.65193C116.543 2.73885 117.874 2.83408 119.204 2.93741L119.282 1.94042L119.359 0.943417C118.021 0.83946 116.682 0.743641 115.342 0.656182L115.277 1.65406ZM123.285 2.2757L123.195 3.27169C124.525 3.39113 125.854 3.51845 127.181 3.65346L127.283 2.65859L127.384 1.66372C126.049 1.52793 124.712 1.39985 123.374 1.27971L123.285 2.2757ZM131.274 3.08785L131.161 4.08148C132.489 4.2321 133.816 4.39023 135.141 4.55563L135.265 3.56334L135.389 2.57104C134.057 2.40471 132.722 2.24569 131.386 2.09421L131.274 3.08785ZM139.244 4.0826L139.109 5.07346C140.434 5.2539 141.757 5.44144 143.078 5.63588L143.223 4.64656L143.369 3.65722C142.042 3.46173 140.711 3.27316 139.379 3.09174L139.244 4.0826ZM147.193 5.25295L147.037 6.24066C148.357 6.44947 149.673 6.66499 150.987 6.887L151.153 5.90098L151.32 4.91498C150 4.6918 148.676 4.47515 147.35 4.26524L147.193 5.25295ZM155.116 6.5921L154.939 7.57632C156.252 7.81251 157.562 8.05503 158.868 8.30365L159.055 7.32129L159.242 6.33893C157.93 6.08905 156.613 5.84529 155.292 5.60788L155.116 6.5921ZM163.006 8.09431L162.809 9.07471C164.121 9.33817 165.427 9.60762 166.729 9.88281L166.936 8.90443L167.143 7.92605C165.834 7.64948 164.521 7.37869 163.203 7.1139L163.006 8.09431ZM170.861 9.75467L170.645 10.7309C171.954 11.0213 173.258 11.3174 174.556 11.6188L174.782 10.6447L175.009 9.67064C173.704 9.36771 172.394 9.07021 171.078 8.77839L170.861 9.75467ZM178.677 11.5693L178.441 12.5411C179.749 12.8582 181.051 13.1808 182.345 13.5083L182.591 12.5389L182.836 11.5694C181.535 11.2402 180.227 10.9162 178.913 10.5974L178.677 11.5693ZM186.465 13.539L186.21 14.506C187.512 14.8489 188.806 15.1967 190.093 15.5492L190.358 14.5847L190.622 13.6202C189.328 13.266 188.028 12.9165 186.719 12.572L186.465 13.539ZM194.219 15.6626L193.946 16.6244C195.238 16.9919 196.522 17.364 197.797 17.7403L198.08 16.7812L198.363 15.8221C197.081 15.4439 195.791 15.07 194.493 14.7007L194.219 15.6626ZM201.929 17.9377L201.636 18.894C202.918 19.2861 204.19 19.6823 205.453 20.0823L205.755 19.129L206.057 18.1757C204.788 17.7737 203.509 17.3755 202.221 16.9815L201.929 17.9377ZM209.59 20.3657L209.278 21.3158C210.549 21.7328 211.809 22.1535 213.058 22.5776L213.38 21.6306L213.701 20.6837C212.446 20.2575 211.179 19.8346 209.902 19.4155L209.59 20.3657ZM217.198 22.9495L216.867 23.893C218.127 24.3358 219.375 24.7818 220.61 25.2306L220.952 24.2907L221.293 23.3509C220.051 22.8996 218.797 22.4512 217.53 22.0061L217.198 22.9495ZM224.749 25.6946L224.397 26.6306C225.647 27.1009 226.883 27.5738 228.104 28.0489L228.467 27.117L228.83 26.185C227.601 25.7071 226.358 25.2315 225.101 24.7586L224.749 25.6946ZM232.236 28.6092L231.862 29.5367C233.104 30.0371 234.328 30.5394 235.536 31.0433L235.921 30.1205L236.306 29.1977C235.091 28.6906 233.859 28.1851 232.609 27.6817L232.236 28.6092ZM239.648 31.7049L239.251 32.6226C240.485 33.1571 241.699 33.6928 242.893 34.2291L243.303 33.317L243.713 32.4049C242.511 31.8648 241.288 31.3253 240.045 30.7872L239.648 31.7049ZM246.969 34.9976L246.545 35.9035C247.774 36.4781 248.978 37.0528 250.156 37.6269L250.595 36.7279L251.033 35.829C249.845 35.2501 248.631 34.6708 247.393 34.0917L246.969 34.9976ZM254.169 38.5083L253.715 39.3994C254.939 40.0224 256.13 40.6439 257.289 41.2631L257.76 40.3812L258.232 39.4992C257.061 38.8736 255.858 38.2459 254.623 37.6171L254.169 38.5083ZM261.263 42.302L260.772 43.1733C261.961 43.8432 263.11 44.5092 264.216 45.1701L264.729 44.3117L265.242 43.4533C264.12 42.7832 262.957 42.1086 261.753 41.4307L261.263 42.302Z" fill="black"/>
</svg>
