<svg width="86" height="86" viewBox="0 0 86 86" fill="none" xmlns="http://www.w3.org/2000/svg">
<path d="M55.1554 31.9663C55.1802 28.3624 53.3203 24.8479 49.976 22.9171C47.3874 21.4226 44.4218 21.1727 41.7721 21.9817" stroke="white" stroke-width="6" stroke-linecap="round"/>
<path d="M43 9.8916C56.8071 9.8916 68 20.6753 68 33.9776C68 43.3811 62.4062 51.5253 54.25 55.4919V64.7098C54.25 65.8144 53.3546 66.7098 52.25 66.7098H32.5C31.3954 66.7098 30.5 65.8144 30.5 64.7098V54.8393C23.028 50.6746 18 42.8924 18 33.9776C18 20.6753 29.1929 9.8916 43 9.8916Z" stroke="white" stroke-width="6"/>
<path d="M49.3388 69.2037C49.3388 71.0357 48.611 72.7927 47.3156 74.0881C46.0201 75.3836 44.2631 76.1113 42.4311 76.1113C40.5991 76.1113 38.8421 75.3836 37.5466 74.0881C36.2512 72.7927 35.5234 71.0357 35.5234 69.2037" stroke="white" stroke-width="6" stroke-linecap="round"/>
</svg>
