<svg width="318" height="68" viewBox="0 0 318 68" fill="none" xmlns="http://www.w3.org/2000/svg">
<g clip-path="url(#clip0_6935_5387)">
<path d="M90.66 0H13.6976L0 68H76.9623C85.2106 68 93.2118 61.483 94.8318 53.4443L102.664 14.5592C104.284 6.52055 98.9082 0.00355537 90.6565 0.00355537L90.66 0ZM67.9906 18.0079L61.5706 49.9921C60.8294 53.679 57.2647 56.6655 53.6047 56.6655H34.8282L43.9271 11.3345H62.7035C66.3635 11.3345 68.7282 14.321 67.9906 18.0079Z" fill="white"/>
<path d="M206.429 0H169.451L142.582 30.1851L159.149 68H196.123L179.556 30.1851L206.429 0Z" fill="white"/>
<path d="M111.872 18.7324H135.24L125.143 67.9956H101.785L111.872 18.7324Z" fill="white"/>
<path d="M139.081 0L136.374 13.2153H113.006L115.713 0H139.081Z" fill="white"/>
<path d="M294.755 0H318L304.073 68H280.828L294.755 0Z" fill="white"/>
<path d="M267.332 18.6403H218.531C214.352 18.6403 210.748 21.6019 209.915 25.719L203.499 57.3654C202.38 62.8584 206.545 67.9959 212.114 67.9959H260.915C265.094 67.9959 268.698 65.0343 269.531 60.9172L271.288 52.2385H247.108L246.159 56.9565C245.834 58.5955 244.391 59.7866 242.725 59.7866H231.533C229.31 59.7866 227.654 57.7422 228.099 55.5521L229.726 47.4245H272.266L275.947 29.2673C277.066 23.7742 272.901 18.6367 267.332 18.6367V18.6403ZM251.354 31.0805L249.727 39.2081H231.378L233.291 29.6761C233.615 28.0229 235.059 26.8461 236.725 26.8461H247.917C250.14 26.8461 251.795 28.8904 251.351 31.0805H251.354Z" fill="white"/>
</g>
<defs>
<clipPath id="clip0_6935_5387">
<rect width="318" height="68" fill="white"/>
</clipPath>
</defs>
</svg>
