<svg width="30" height="30" viewBox="0 0 30 30" fill="none" xmlns="http://www.w3.org/2000/svg">
<path d="M4.8457 24.462H15.2628L4.8457 14.0449V24.462Z" fill="#A7A7A7"/>
<path d="M15.001 4.15234C20.6086 4.15234 25.1551 8.69812 25.1553 14.3057C25.1553 19.9133 20.6086 24.46 15.001 24.46C9.39343 24.4598 4.84766 19.9132 4.84766 14.3057C4.84779 8.6982 9.39351 4.15248 15.001 4.15234ZM15.001 10.2441C12.7581 10.2443 10.9396 12.0628 10.9395 14.3057C10.9395 16.5486 12.758 18.3671 15.001 18.3672C17.244 18.3672 19.0625 16.5487 19.0625 14.3057C19.0624 12.0627 17.244 10.2441 15.001 10.2441Z" fill="#A7A7A7"/>
</svg>
