<svg width="265" height="70" viewBox="0 0 265 70" fill="none" xmlns="http://www.w3.org/2000/svg">
<path d="M264.336 60.973L256.182 69.1491L253.179 57.9997L264.336 60.973ZM0.745324 0.666296L1.49045 -0.000626927C1.9331 0.493931 2.37954 0.985217 2.82969 1.47325L2.09464 2.15126L1.35959 2.82926C0.902697 2.33394 0.449548 1.83526 0.00019849 1.33322L0.745324 0.666296ZM4.86013 5.06187L5.5749 4.36251C6.50387 5.31195 7.44729 6.24853 8.40471 7.17238L7.71033 7.89199L7.01595 8.6116C6.04491 7.67461 5.0879 6.72453 4.14537 5.76123L4.86013 5.06187ZM10.6363 10.6371L11.3102 9.89833C12.2924 10.7944 13.288 11.678 14.2968 12.5492L13.6431 13.306L12.9895 14.0628C11.9672 13.1799 10.958 12.2843 9.96225 11.3758L10.6363 10.6371ZM16.7119 15.8861L17.3453 15.1123C18.3737 15.9542 19.4145 16.7839 20.4674 17.6016L19.854 18.3914L19.2406 19.1812C18.1744 18.3531 17.1202 17.5127 16.0784 16.6599L16.7119 15.8861ZM23.0539 20.8133L23.6475 20.0085C24.7162 20.7968 25.7964 21.5734 26.8876 22.3384L26.3135 23.1572L25.7395 23.976C24.6353 23.2019 23.5421 22.416 22.4603 21.618L23.0539 20.8133ZM29.6314 25.4258L30.1862 24.5938C31.29 25.3299 32.4042 26.0548 33.5285 26.7685L32.9926 27.6128L32.4566 28.457C31.3198 27.7354 30.193 27.0023 29.0765 26.2578L29.6314 25.4258ZM36.4137 29.7322L36.9311 28.8765C38.0659 29.5626 39.2102 30.2379 40.3636 30.9024L39.8643 31.7689L39.3651 32.6354C38.1997 31.9639 37.0433 31.2815 35.8963 30.588L36.4137 29.7322ZM43.3673 33.7397L43.8488 32.8632C45.0137 33.5031 46.1871 34.1326 47.3688 34.7516L46.9047 35.6374L46.4406 36.5232C45.2475 35.8981 44.0625 35.2625 42.8859 34.6162L43.3673 33.7397ZM50.478 37.466L50.9251 36.5716C52.1166 37.1671 53.3158 37.7525 54.5223 38.3279L54.0918 39.2305L53.6613 40.1331C52.4439 39.5525 51.2336 38.9617 50.0309 38.3605L50.478 37.466ZM57.7259 40.9238L58.1402 40.0137C59.3531 40.5658 60.5729 41.1081 61.7991 41.6408L61.4006 42.558L61.0022 43.4752C59.7655 42.938 58.5352 42.3909 57.3116 41.8339L57.7259 40.9238ZM65.0931 44.1252L65.4761 43.2015C66.7061 43.7115 67.9421 44.2122 69.1837 44.7035L68.8157 45.6333L68.4478 46.5632C67.1963 46.0679 65.9502 45.5632 64.7101 45.049L65.0931 44.1252ZM72.5634 47.0821L72.9167 46.1466C74.1618 46.6167 75.4121 47.0778 76.6671 47.5299L76.3282 48.4707L75.9893 49.4115C74.7248 48.956 73.465 48.4914 72.2102 48.0176L72.5634 47.0821ZM80.1213 49.8052L80.4462 48.8594C81.7052 49.2919 82.9686 49.7157 84.236 50.1307L83.9248 51.081L83.6135 52.0314C82.3371 51.6134 81.0647 51.1866 79.7964 50.751L80.1213 49.8052ZM87.7509 52.3043L88.0488 51.3497C89.3217 51.7468 90.5982 52.1355 91.878 52.5157L91.5932 53.4743L91.3084 54.4329C90.02 54.0501 88.7348 53.6588 87.453 53.2589L87.7509 52.3043ZM95.4494 54.592L95.7215 53.6298C97.0056 53.9928 98.2925 54.3475 99.582 54.694L99.3225 55.6598L99.0629 56.6255C97.7652 56.2767 96.4699 55.9197 95.1774 55.5543L95.4494 54.592ZM103.207 56.6773L103.454 55.7084C104.747 56.0384 106.042 56.3604 107.339 56.6745L107.104 57.6464L106.868 58.6183C105.564 58.3023 104.26 57.9784 102.959 57.6463L103.207 56.6773ZM111.013 58.5682L111.237 57.5935C112.538 57.8921 113.841 58.1828 115.145 58.4658L114.933 59.4431L114.721 60.4203C113.409 60.1357 112.099 59.8432 110.79 59.5428L111.013 58.5682ZM118.861 60.2718L119.061 59.2922C120.371 59.5607 121.682 59.8215 122.992 60.0748L122.803 61.0567L122.613 62.0385C121.295 61.7838 119.977 61.5215 118.66 61.2514L118.861 60.2718ZM126.747 61.7961L126.925 60.8122C128.241 61.0514 129.558 61.2831 130.873 61.5074L130.705 62.4932L130.537 63.479C129.214 63.2534 127.891 63.0205 126.568 62.7799L126.747 61.7961ZM134.667 63.147L134.825 62.1594C136.144 62.3699 137.463 62.573 138.78 62.769L138.633 63.7581L138.486 64.7472C137.162 64.5502 135.836 64.3461 134.51 64.1345L134.667 63.147ZM142.615 64.329L142.751 63.3384C144.074 63.5209 145.394 63.6964 146.713 63.8647L146.586 64.8567L146.46 65.8486C145.134 65.6794 143.807 65.5031 142.478 65.3196L142.615 64.329ZM150.582 65.3461L150.699 64.353C152.027 64.5088 153.353 64.6576 154.676 64.7994L154.57 65.7937L154.463 66.788C153.133 66.6455 151.801 66.496 150.466 66.3393L150.582 65.3461ZM158.565 66.2019L158.662 65.2066C159.997 65.3362 161.328 65.4589 162.656 65.5746L162.569 66.5708L162.482 67.567C161.148 67.4507 159.81 67.3275 158.469 67.1972L158.565 66.2019ZM166.559 66.8989L166.636 65.9018C167.977 66.0055 169.315 66.1022 170.647 66.1921L170.58 67.1898L170.513 68.1876C169.174 68.0973 167.83 68.0001 166.482 67.8959L166.559 66.8989ZM174.573 67.4395L174.631 66.4412C175.975 66.5187 177.313 66.5892 178.646 66.6529L178.599 67.6518L178.551 68.6507C177.211 68.5866 175.866 68.5157 174.516 68.4379L174.573 67.4395ZM182.604 67.8237L182.642 66.8244C183.984 66.8755 185.32 66.9196 186.65 66.9571L186.621 67.9567L186.593 68.9563C185.258 68.9187 183.915 68.8743 182.566 68.823L182.604 67.8237ZM190.639 68.0499L190.657 67.05C191.998 67.0745 193.33 67.0921 194.654 67.103L194.646 68.1029L194.638 69.1029C193.307 69.0919 191.968 69.0743 190.621 69.0497L190.639 68.0499ZM198.675 68.1157L198.674 67.1157C200.011 67.1131 201.34 67.1037 202.659 67.0876L202.671 68.0875L202.683 69.0874C201.357 69.1036 200.022 69.1131 198.677 69.1157L198.675 68.1157ZM206.71 68.017L206.687 67.0172C208.023 66.9868 209.347 66.9495 210.661 66.9056L210.694 67.905L210.728 68.9044C209.407 68.9486 208.075 68.9861 206.733 69.0167L206.71 68.017ZM214.74 67.7471L214.695 66.7481C216.03 66.6885 217.352 66.6219 218.66 66.5486L218.716 67.5471L218.772 68.5455C217.456 68.6192 216.126 68.6862 214.784 68.7461L214.74 67.7471ZM222.761 67.2962L222.693 66.2985C224.029 66.2076 225.349 66.1096 226.653 66.0046L226.733 67.0014L226.813 67.9982C225.501 68.1038 224.173 68.2024 222.829 68.2939L222.761 67.2962ZM230.768 66.6501L230.675 65.6545C232.014 65.5289 233.334 65.3959 234.635 65.2557L234.742 66.25L234.849 67.2442C233.539 67.3854 232.21 67.5193 230.861 67.6458L230.768 66.6501ZM238.749 65.7884L238.627 64.7959C239.974 64.6304 241.296 64.4571 242.594 64.2764L242.732 65.2668L242.87 66.2573C241.561 66.4395 240.228 66.6142 238.871 66.7809L238.749 65.7884ZM246.682 64.6819L246.527 63.6941C247.883 63.4809 249.209 63.2592 250.502 63.0296L250.677 64.0142L250.852 64.9988C249.545 65.2308 248.207 65.4546 246.838 65.6698L246.682 64.6819ZM254.603 63.2734L254.406 62.2929C255.744 62.0246 257.043 61.7473 258.299 61.4616L258.521 62.4368L258.742 63.4119C257.469 63.7015 256.154 63.9824 254.799 64.2539L254.603 63.2734Z" fill="black"/>
</svg>
