<svg width="220" height="37" viewBox="0 0 220 37" fill="none" xmlns="http://www.w3.org/2000/svg">
<g clip-path="url(#clip0_6871_2676)">
<path d="M71.3728 0H91.7473L76.7764 16.3369L85.9141 36.5954H65.5885L56.5806 16.3369L71.3728 0Z" fill="white"/>
<path d="M49.3323 0H7.6085L-0.000976562 36.5463H41.7199C46.4777 36.5463 51.1604 32.7315 52.1379 28.0643L56.2209 8.482C57.1955 3.81473 54.0958 0.00288995 49.3323 0.00288995V0ZM37.7177 10.5079L34.5228 26.0355C34.024 28.4718 31.5817 30.4658 29.1076 30.4658H19.3586L24.373 6.08334H34.1191C36.6018 6.08334 38.2223 8.08029 37.7177 10.5079Z" fill="white"/>
<path d="M164.586 7.84535H162.535V10.6659H164.981V13.1773C164.981 14.342 164.56 14.8015 163.251 14.8015H162.449C161.33 14.8015 160.727 14.3304 160.727 13.1773V11.2728H160.736L160.727 8.85972L160.736 6.4524H160.727V4.54792C160.727 3.4035 161.33 2.92088 162.449 2.92088H163.251C164.557 2.92088 164.981 3.39483 164.981 4.54792V5.1866H170.531V4.98141C170.531 1.18402 169.412 0.0078125 165.223 0.0078125H160.529C156.763 0.0078125 155.18 1.14934 155.18 4.95829V12.871C155.18 16.6799 156.763 17.8157 160.529 17.8157H165.223C169.412 17.8157 170.531 16.6452 170.531 12.8479V7.85402H164.586V7.84535Z" fill="white"/>
<path d="M115.86 0.138672H104.909V17.6315H115.748C119.265 17.6315 120.249 16.097 120.249 13.5162V4.28864C120.249 1.70502 119.193 0.138672 115.86 0.138672ZM114.929 13.1926C114.929 14.2012 114.537 14.7185 113.271 14.7185H110.24V3.04018H113.271C114.315 3.04018 114.929 3.6384 114.929 4.56607V13.1926Z" fill="white"/>
<path d="M196.922 13.3004C196.922 14.4333 196.504 14.8899 195.218 14.8899H194.284C193.185 14.8899 192.588 14.4246 192.588 13.3004L192.582 0.136719H187.095V12.9941C187.095 16.7366 188.661 17.855 192.386 17.855H197.164C201.308 17.855 202.404 16.7106 202.404 12.971V0.136719H196.922V13.3004Z" fill="white"/>
<path d="M131.5 0.03125H126.8C123.034 0.03125 121.445 1.17278 121.445 4.97884V12.8655C121.445 16.6745 123.034 17.8102 126.8 17.8102H131.5C135.693 17.8102 136.794 16.6398 136.794 12.8424V5.00485C136.794 1.19879 135.69 0.0341399 131.5 0.0341399V0.03125ZM131.252 6.61455V13.1776C131.252 14.3423 130.834 14.8018 129.533 14.8018H128.723C127.607 14.8018 127.002 14.3307 127.002 13.1776V11.2731H127.008L127.002 8.86004L127.008 6.48161H127.002V4.57425C127.002 3.42983 127.607 2.95877 128.723 2.95877H129.533C130.834 2.95877 131.252 3.42694 131.252 4.57425V6.62033V6.61455Z" fill="white"/>
<path d="M148.521 10.9153L144.017 0.138672H138.005V17.6315H143.55V6.13531L148.458 17.6402H154.02V0.138672H148.521V10.9153Z" fill="white"/>
<path d="M177.151 8.90099L182.102 17.6315H187.938L182.336 8.36057L186.528 0.138672H181.223L177.151 8.37213V0.138672H171.626V17.6402H177.151V8.90099Z" fill="white"/>
<path d="M209.208 8.89904L214.154 17.6296H219.998L214.396 8.35862L218.588 0.136719H213.28L209.208 8.37018V0.136719H203.687V17.6382H209.208V8.89904Z" fill="white"/>
<path d="M188.881 33.942C188.881 32.8178 188.596 32.0577 187.869 31.341C187.8 31.263 187.587 31.0752 186.972 30.6446C186.972 30.6446 184.683 29.1216 184.677 29.1129C183.59 28.4424 183.048 27.6679 183.048 26.8183C183.048 26.2692 183.195 25.8588 183.478 25.5843C183.754 25.3242 184.161 25.1883 184.7 25.1883C185.291 25.1883 185.75 25.3762 185.992 25.7056C186.223 26.0206 186.355 26.6362 186.367 27.2084H188.775C188.786 27.0784 188.786 26.8183 188.786 26.8183C188.786 25.7316 188.501 24.9571 187.933 24.4976C187.336 24.0092 186.315 23.7578 184.905 23.7578C183.259 23.7578 182.076 24.0006 181.399 24.4745C180.776 24.9138 180.47 25.6478 180.47 26.7171C180.47 27.9367 180.874 28.5378 181.641 29.2603L182.549 29.9394L184.562 31.2601C185.277 31.7312 185.735 32.1271 185.972 32.4652C186.217 32.8351 186.341 33.3293 186.341 33.9362C186.341 34.4997 186.197 34.9188 185.9 35.1847C185.632 35.4361 185.216 35.569 184.648 35.569C184.049 35.569 183.57 35.3812 183.293 35.0431C183.1 34.7974 182.858 34.2136 182.855 33.4362H180.488C180.482 33.6385 180.473 34.0576 180.473 34.0576C180.473 35.098 180.779 35.8522 181.384 36.2857C182.042 36.7597 183.186 37.0024 184.775 37.0024C186.364 37.0024 187.468 36.7741 188.062 36.3233C188.607 35.9072 188.884 35.1124 188.884 33.9478L188.881 33.942Z" fill="white"/>
<path d="M170.919 36.8262V24.0469H168.35V36.8262H170.919Z" fill="white"/>
<path d="M179.49 25.6903V24.0488H172.696V36.8282H179.49V35.1867H175.263V30.9992H179.325V29.3345H175.263V25.6903H179.49Z" fill="white"/>
<path d="M107.67 36.8262V24.0469H105.101V36.8262H107.67Z" fill="white"/>
<path d="M115.59 36.8262H119.713V24.0469H117.144V35.0258C117.144 35.0258 113.618 24.3185 113.517 24.0469H109.417V36.8262H111.986V25.8502C112.026 25.9514 115.166 35.5749 115.59 36.8262Z" fill="white"/>
<path d="M129.475 34.4758V26.329C129.475 25.4938 129.178 24.9476 128.546 24.6095C127.852 24.2396 126.594 24.0488 124.804 24.0488H121.361V36.8282H124.804C126.609 36.8282 127.863 36.6432 128.558 36.2704C129.187 35.9207 129.475 35.3514 129.475 34.4758ZM126.912 33.9353C126.912 34.3804 126.77 34.7214 126.485 34.941C126.234 35.1433 125.845 35.2503 125.3 35.2503L124.913 35.2416L123.939 35.1982V26.0227L123.913 25.6672L124.628 25.6354H125.135C125.758 25.6354 126.179 25.7163 126.439 25.8811C126.649 26.0227 126.914 26.3174 126.914 26.8983V33.9382L126.912 33.9353Z" fill="white"/>
<path d="M138.956 34.259V24.0488H136.381V33.4151C136.381 34.2475 136.283 34.7387 136.07 34.9931C135.842 35.2676 135.473 35.3977 134.954 35.3977C134.435 35.3977 134.063 35.2618 133.832 34.9873C133.619 34.7243 133.515 34.233 133.515 33.3891V24.0488H130.949V34.259C130.949 35.2792 131.237 35.9728 131.822 36.3542C132.48 36.8051 133.423 36.9958 134.951 36.9958C136.479 36.9958 137.411 36.8051 138.068 36.3542C138.653 35.9785 138.953 35.2734 138.953 34.259H138.956Z" fill="white"/>
<path d="M148.419 33.944C148.419 32.8169 148.128 32.0569 147.402 31.3402C147.332 31.2621 147.119 31.083 146.502 30.6437L144.215 29.112C143.134 28.4416 142.578 27.6671 142.578 26.8232C142.578 26.2683 142.725 25.8551 143.019 25.5863C143.287 25.3233 143.702 25.1933 144.233 25.1933C144.815 25.1933 145.285 25.3811 145.519 25.7106C145.749 26.0198 145.885 26.5747 145.896 27.144H148.301C148.313 27.0226 148.324 26.8232 148.324 26.8232C148.324 25.7337 148.033 24.9621 147.471 24.4968C146.874 24.0084 145.853 23.7656 144.432 23.7656C142.791 23.7656 141.614 23.9997 140.943 24.4766C140.32 24.9187 140.011 25.6499 140.011 26.7163C140.011 27.93 140.429 28.5543 141.176 29.2594L142.087 29.9386L144.088 31.2593C144.812 31.7303 145.268 32.1262 145.501 32.4644C145.752 32.8343 145.87 33.3342 145.87 33.9354C145.87 34.4989 145.726 34.9179 145.441 35.1838C145.161 35.4352 144.752 35.5682 144.186 35.5682C143.59 35.5682 143.099 35.3803 142.834 35.0422C142.635 34.7994 142.407 34.2764 142.393 33.4932H140.029C140.029 33.7042 140.014 34.0567 140.014 34.0567C140.014 35.0971 140.323 35.8514 140.92 36.2849C141.58 36.7588 142.719 37.0016 144.313 37.0016C145.908 37.0016 147.001 36.7733 147.595 36.3224C148.148 35.9063 148.425 35.1116 148.425 33.9498L148.419 33.944Z" fill="white"/>
<path d="M157.45 24.0488H148.834V25.6903H151.865V36.8282H154.428V25.6903H157.447V24.0488H157.45Z" fill="white"/>
<path d="M166.784 36.5993V32.536C166.784 31.8771 166.576 31.409 166.239 31.0708C165.893 30.724 165.362 30.2443 164.384 30.1836C166.567 29.9871 166.55 28.1318 166.55 28.1318V26.1348C166.55 26.051 166.55 25.9903 166.533 25.9152C166.527 25.892 166.527 25.8776 166.524 25.866C166.515 25.8111 166.51 25.7562 166.492 25.7013C166.492 25.6984 166.492 25.684 166.484 25.6753C165.985 23.9095 162.657 24.0598 162.657 24.0598H158.52V36.8247H161.08V31.0448L161.273 31.0333L161.91 30.987H162.193C162.836 30.9841 163.309 31.094 163.643 31.3078C164.021 31.5448 164.217 31.932 164.217 32.4147V36.5704C164.217 36.6427 164.229 36.686 164.255 36.7149C164.269 36.7438 164.33 36.7814 164.428 36.8276H166.879C166.801 36.6513 166.789 36.6224 166.789 36.5993H166.784ZM163.987 28.1693C163.987 28.6057 163.776 28.9756 163.421 29.1866C163.101 29.3802 162.652 29.464 162.037 29.464L161.651 29.4582L161.074 29.412V26.0221L161.066 25.6811L161.256 25.6666L161.657 25.6291H162.014C162.62 25.6262 163.075 25.7129 163.398 25.8978C163.776 26.1175 163.989 26.4729 163.989 26.9151V28.1722L163.987 28.1693Z" fill="white"/>
</g>
<defs>
<clipPath id="clip0_6871_2676">
<rect width="220" height="37" fill="white" transform="translate(-0.000976562)"/>
</clipPath>
</defs>
</svg>
