<svg width="130" height="130" viewBox="0 0 130 130" fill="none" xmlns="http://www.w3.org/2000/svg">
<path d="M110.399 52.8355C108.128 44.3621 103.531 36.6931 97.1288 30.6964C90.7262 24.6997 82.7731 20.6145 74.1693 18.9031C65.5654 17.1917 56.6544 17.9224 48.4443 21.0124C40.2341 24.1025 33.0527 29.4286 27.7124 36.3882C22.3721 43.3478 19.0862 51.6631 18.2263 60.3932C17.3665 69.1233 18.9671 77.9199 22.847 85.7876C26.7269 93.6553 32.7313 100.28 40.1808 104.912C47.6303 109.545 56.2276 112 65 112L65 83.8C61.491 83.8 58.0521 82.818 55.0723 80.965C52.0925 79.112 49.6908 76.4621 48.1388 73.315C46.5868 70.1679 45.9466 66.6493 46.2905 63.1573C46.6345 59.6652 47.9488 56.3391 50.085 53.5553C52.2211 50.7714 55.0937 48.641 58.3777 47.405C61.6618 46.1689 65.2262 45.8767 68.6677 46.5612C72.1092 47.2458 75.2905 48.8799 77.8515 51.2786C80.4126 53.6772 82.2512 56.7448 83.1594 60.1342L110.399 52.8355Z" fill="url(#paint0_linear_6_5981)"/>
<rect x="83.8594" y="92.8594" width="28" height="19.1406" fill="black"/>
<rect x="83.8594" y="84.8516" width="28" height="6.00489" fill="black"/>
<rect x="82.3047" y="77.0547" width="28" height="6.00489" transform="rotate(-15 82.3047 77.0547)" fill="black"/>
<defs>
<linearGradient id="paint0_linear_6_5981" x1="65" y1="65" x2="65" y2="112" gradientUnits="userSpaceOnUse">
<stop stop-color="#F3782B"/>
<stop offset="1" stop-color="#FF9933"/>
</linearGradient>
</defs>
</svg>
