<svg width="163" height="34" viewBox="0 0 163 34" fill="none" xmlns="http://www.w3.org/2000/svg">
<g clip-path="url(#clip0_6892_1958)">
<path d="M52.8815 4H67.9773L56.8851 15.9215L63.6553 30.7048H48.596L41.9219 15.9215L52.8815 4Z" fill="#F27100"/>
<path d="M36.5515 4H5.63793L0 30.6689H30.9114C34.4364 30.6689 37.9059 27.8852 38.6302 24.4793L41.6553 10.1896C42.3774 6.78372 40.0808 4.00211 36.5515 4.00211V4ZM27.9461 11.6679L25.579 22.9989C25.2094 24.7767 23.3999 26.2318 21.5668 26.2318H14.3437L18.0589 8.43919H25.2799C27.1193 8.43919 28.32 9.89643 27.9461 11.6679Z" fill="#003593"/>
<path d="M121.944 9.72514H120.425V11.7834H122.236V13.616C122.236 14.4659 121.924 14.8012 120.954 14.8012H120.36C119.532 14.8012 119.085 14.4575 119.085 13.616V12.2263H119.091L119.085 10.4654L119.091 8.70866H119.085V7.31891C119.085 6.48379 119.532 6.13161 120.36 6.13161H120.954C121.922 6.13161 122.236 6.47747 122.236 7.31891V7.78497H126.349V7.63524C126.349 4.86417 125.52 4.00586 122.416 4.00586H118.938C116.147 4.00586 114.975 4.83887 114.975 7.61837V13.3925C114.975 16.172 116.147 17.0008 118.938 17.0008H122.416C125.52 17.0008 126.349 16.1467 126.349 13.3756V9.73147H121.944V9.72514Z" fill="#003593"/>
<path d="M85.8425 4.10059H77.7285V16.8656H85.7592C88.3656 16.8656 89.0941 15.7458 89.0941 13.8626V7.12894C89.0941 5.2436 88.3122 4.10059 85.8425 4.10059ZM85.1525 13.6264C85.1525 14.3624 84.8619 14.7399 83.924 14.7399H81.6787V6.2179H83.924C84.6974 6.2179 85.1525 6.65444 85.1525 7.33139V13.6264Z" fill="#003593"/>
<path d="M145.902 13.7065C145.902 14.5332 145.592 14.8664 144.639 14.8664H143.947C143.133 14.8664 142.691 14.5269 142.691 13.7065L142.687 4.10059H138.621V13.483C138.621 16.214 139.781 17.0301 142.541 17.0301H146.081C149.151 17.0301 149.963 16.195 149.963 13.4661V4.10059H145.902V13.7065Z" fill="#003593"/>
<path d="M97.4301 4.02246H93.9477C91.1576 4.02246 89.9805 4.85547 89.9805 7.63286V13.388C89.9805 16.1675 91.1576 16.9963 93.9477 16.9963H97.4301C100.536 16.9963 101.352 16.1422 101.352 13.3711V7.65184C101.352 4.87445 100.534 4.02457 97.4301 4.02457V4.02246ZM97.2463 8.82649V13.6158C97.2463 14.4656 96.9366 14.801 95.973 14.801H95.3727C94.5459 14.801 94.0973 14.4572 94.0973 13.6158V12.226H94.1016L94.0973 10.4651L94.1016 8.72948H94.0973V7.33762C94.0973 6.50251 94.5459 6.15876 95.3727 6.15876H95.973C96.9366 6.15876 97.2463 6.5004 97.2463 7.33762V8.83071V8.82649Z" fill="#003593"/>
<path d="M110.041 11.9646L106.704 4.10059H102.25V16.8656H106.358V8.47651L109.994 16.872H114.116V4.10059H110.041V11.9646Z" fill="#003593"/>
<path d="M131.253 10.4947L134.922 16.8656H139.246L135.095 10.1004L138.201 4.10059H134.27L131.253 10.1088V4.10059H127.16V16.872H131.253V10.4947Z" fill="#003593"/>
<path d="M155.005 10.4947L158.669 16.8656H163L158.849 10.1004L161.955 4.10059H158.022L155.005 10.1088V4.10059H150.914V16.872H155.005V10.4947Z" fill="#003593"/>
<path d="M139.945 28.7686C139.945 27.9483 139.733 27.3936 139.195 26.8706C139.144 26.8137 138.985 26.6766 138.53 26.3624C138.53 26.3624 136.834 25.251 136.83 25.2447C136.024 24.7554 135.623 24.1902 135.623 23.5702C135.623 23.1695 135.732 22.8701 135.941 22.6697C136.146 22.4799 136.447 22.3808 136.847 22.3808C137.285 22.3808 137.625 22.5179 137.804 22.7583C137.975 22.9882 138.073 23.4374 138.082 23.8549H139.866C139.874 23.76 139.874 23.5702 139.874 23.5702C139.874 22.7773 139.663 22.2121 139.242 21.8768C138.8 21.5204 138.043 21.3369 136.999 21.3369C135.779 21.3369 134.903 21.5141 134.401 21.8599C133.939 22.1805 133.713 22.7161 133.713 23.4964C133.713 24.3864 134.012 24.825 134.58 25.3522L135.253 25.8478L136.744 26.8116C137.274 27.1553 137.614 27.4442 137.789 27.691C137.971 27.9609 138.063 28.3215 138.063 28.7644C138.063 29.1756 137.956 29.4814 137.736 29.6754C137.537 29.8589 137.229 29.9559 136.809 29.9559C136.364 29.9559 136.01 29.8188 135.804 29.5721C135.661 29.3928 135.482 28.9668 135.48 28.3996H133.726C133.721 28.5472 133.715 28.853 133.715 28.853C133.715 29.6122 133.941 30.1626 134.39 30.4789C134.877 30.8248 135.725 31.0019 136.903 31.0019C138.08 31.0019 138.898 30.8353 139.338 30.5063C139.742 30.2027 139.947 29.6227 139.947 28.7728L139.945 28.7686Z" fill="#003593"/>
<path d="M126.636 30.8733V21.5479H124.732V30.8733H126.636Z" fill="#003593"/>
<path d="M132.986 22.7476V21.5498H127.953V30.8753H132.986V29.6774H129.855V26.6217H132.865V25.4069H129.855V22.7476H132.986Z" fill="#003593"/>
<path d="M79.7746 30.8733V21.5479H77.8711V30.8733H79.7746Z" fill="#003593"/>
<path d="M85.6424 30.8733H88.6974V21.5479H86.7939V29.5595C86.7939 29.5595 84.1811 21.7461 84.1063 21.5479H81.0684V30.8733H82.9719V22.8638C83.0018 22.9376 85.3283 29.9602 85.6424 30.8733Z" fill="#003593"/>
<path d="M95.9298 29.1586V23.2137C95.9298 22.6042 95.7097 22.2057 95.2418 21.9589C94.727 21.689 93.7955 21.5498 92.4688 21.5498H89.918V30.8753H92.4688C93.8062 30.8753 94.7355 30.7403 95.2504 30.4683C95.7161 30.2131 95.9298 29.7976 95.9298 29.1586ZM94.0305 28.7643C94.0305 29.0891 93.9258 29.3379 93.7143 29.4982C93.5285 29.6458 93.24 29.7238 92.8363 29.7238L92.55 29.7175L91.8279 29.6859V22.9902L91.8087 22.7308L92.3385 22.7076H92.7145C93.176 22.7076 93.4879 22.7666 93.6801 22.8868C93.8361 22.9902 94.0326 23.2053 94.0326 23.6292V28.7664L94.0305 28.7643Z" fill="#003593"/>
<path d="M102.954 29.0005V21.5498H101.046V28.3847C101.046 28.992 100.974 29.3506 100.816 29.5361C100.647 29.7365 100.373 29.8314 99.9889 29.8314C99.6044 29.8314 99.3288 29.7323 99.1579 29.5319C98.9998 29.34 98.9229 28.9815 98.9229 28.3657V21.5498H97.0215V29.0005C97.0215 29.7449 97.2351 30.251 97.6688 30.5294C98.1559 30.8584 98.8545 30.9976 99.9868 30.9976C101.119 30.9976 101.809 30.8584 102.296 30.5294C102.73 30.2553 102.952 29.7407 102.952 29.0005H102.954Z" fill="#003593"/>
<path d="M109.966 28.7703C109.966 27.9478 109.75 27.3932 109.212 26.8701C109.161 26.8132 109.003 26.6825 108.545 26.3619L106.851 25.2442C106.05 24.7549 105.638 24.1898 105.638 23.574C105.638 23.1691 105.747 22.8675 105.965 22.6714C106.163 22.4795 106.471 22.3846 106.864 22.3846C107.296 22.3846 107.644 22.5216 107.817 22.7621C107.988 22.9877 108.088 23.3926 108.097 23.8081H109.878C109.887 23.7195 109.896 23.574 109.896 23.574C109.896 22.7789 109.68 22.2158 109.263 21.8763C108.821 21.5199 108.065 21.3428 107.011 21.3428C105.796 21.3428 104.924 21.5136 104.426 21.8616C103.965 22.1842 103.736 22.7178 103.736 23.4959C103.736 24.3817 104.046 24.8372 104.599 25.3518L105.275 25.8473L106.757 26.8111C107.293 27.1548 107.631 27.4438 107.804 27.6905C107.99 27.9604 108.077 28.3253 108.077 28.7639C108.077 29.1752 107.971 29.4809 107.759 29.675C107.552 29.8584 107.249 29.9554 106.83 29.9554C106.388 29.9554 106.024 29.8184 105.828 29.5716C105.68 29.3945 105.512 29.0128 105.501 28.4413H103.749C103.749 28.5952 103.738 28.8525 103.738 28.8525C103.738 29.6117 103.967 30.1621 104.409 30.4784C104.899 30.8243 105.742 31.0014 106.924 31.0014C108.105 31.0014 108.915 30.8348 109.355 30.5059C109.765 30.2022 109.97 29.6222 109.97 28.7745L109.966 28.7703Z" fill="#003593"/>
<path d="M116.657 21.5498H110.273V22.7476H112.519V30.8753H114.418V22.7476H116.655V21.5498H116.657Z" fill="#003593"/>
<path d="M123.572 30.7084V27.7433C123.572 27.2625 123.418 26.9209 123.168 26.6741C122.912 26.4211 122.519 26.071 121.795 26.0267C123.412 25.8833 123.399 24.5294 123.399 24.5294V23.0722C123.399 23.011 123.399 22.9667 123.386 22.9119C123.382 22.895 123.382 22.8845 123.38 22.876C123.373 22.836 123.369 22.7959 123.356 22.7558C123.356 22.7537 123.356 22.7432 123.35 22.7368C122.98 21.4483 120.515 21.558 120.515 21.558H117.449V30.8729H119.346V26.6551L119.489 26.6467L119.962 26.613H120.171C120.647 26.6109 120.998 26.691 121.246 26.8471C121.525 27.02 121.671 27.3026 121.671 27.6548V30.6873C121.671 30.7401 121.679 30.7717 121.698 30.7928C121.709 30.8139 121.754 30.8413 121.827 30.875H123.643C123.585 30.7464 123.576 30.7253 123.576 30.7084H123.572ZM121.5 24.5568C121.5 24.8753 121.344 25.1452 121.081 25.2991C120.844 25.4404 120.511 25.5016 120.056 25.5016L119.769 25.4974L119.342 25.4636V22.9899L119.336 22.7411L119.477 22.7305L119.774 22.7031H120.039C120.487 22.701 120.825 22.7643 121.064 22.8992C121.344 23.0595 121.502 23.3189 121.502 23.6416V24.5589L121.5 24.5568Z" fill="#003593"/>
</g>
<defs>
<clipPath id="clip0_6892_1958">
<rect width="163" height="27" fill="white" transform="translate(0 4)"/>
</clipPath>
</defs>
</svg>
