<svg width="464" height="250" viewBox="0 0 464 250" fill="none" xmlns="http://www.w3.org/2000/svg">
<g clip-path="url(#clip0_6_5561)">
<path d="M417.575 229.4H47V220.577H417.575V229.4Z" fill="#9ED4FF"/>
<path d="M264.641 198.752H302.32C320.84 198.752 346.331 199.429 350.217 175.274C354.643 147.773 366.822 145.09 376.401 145.09" stroke="#08A2FF" stroke-width="2.45089"/>
<path d="M160.719 97.968L208.848 49.8408L230.295 70.4321L262.08 38.6475" stroke="url(#paint0_linear_6_5561)" stroke-width="15.6857" stroke-linejoin="round"/>
<path d="M280.473 23.6422C280.629 22.3703 279.543 21.293 278.273 21.4593L242.68 26.1176C241.064 26.3291 240.397 28.3058 241.554 29.4537L272.775 60.4242C273.932 61.5722 275.903 60.8889 276.102 59.271L280.473 23.6422Z" fill="#09A4FE"/>
<path d="M274.522 205.075C274.522 207.286 274.111 209.477 273.31 211.52C272.51 213.563 271.338 215.42 269.859 216.984C268.381 218.548 266.626 219.788 264.694 220.635C262.762 221.481 260.692 221.917 258.601 221.917C256.51 221.917 254.44 221.481 252.508 220.635C250.577 219.788 248.821 218.548 247.343 216.984C245.865 215.42 244.692 213.563 243.892 211.52C243.092 209.476 242.68 207.286 242.68 205.075L258.601 205.075H274.522Z" fill="#5E5D63"/>
<path d="M199.921 205.075C199.921 207.286 199.509 209.477 198.709 211.52C197.909 213.563 196.736 215.42 195.258 216.984C193.779 218.548 192.024 219.788 190.092 220.635C188.161 221.481 186.09 221.917 183.999 221.917C181.909 221.917 179.838 221.481 177.907 220.635C175.975 219.788 174.22 218.548 172.741 216.984C171.263 215.42 170.09 213.563 169.29 211.52C168.49 209.476 168.078 207.286 168.078 205.075L183.999 205.075H199.921Z" fill="#5E5D63"/>
<path d="M204.668 145.75H280.807L297.331 155.015C300.425 156.749 302.34 160.019 302.34 163.566V200.811C302.34 202.977 300.584 204.732 298.419 204.732H205.645L204.668 145.75Z" fill="white"/>
<path d="M175.004 115.19H234.482C236.502 115.19 238.472 115.814 240.124 116.976L281.013 145.748H204.873L175.004 115.19Z" fill="white"/>
<path d="M268.795 144.303C269.564 144.861 269.169 146.077 268.219 146.077H206.204L180.824 119.607H233.79C234.41 119.607 235.014 119.804 235.516 120.168L268.795 144.303Z" fill="black"/>
<path d="M234.617 204.741H111.281C102.628 204.741 95.6094 197.733 95.5957 189.08L95.5273 145.75H204.807L228.514 155.414C232.204 156.919 234.617 160.507 234.617 164.493V204.741Z" fill="#D9D9D9"/>
<path d="M204.859 145.739H95.5273L103.911 118.643C104.546 116.59 106.444 115.19 108.593 115.19H175.154L204.859 145.739Z" fill="#D9D9D9"/>
<path d="M206.312 146.077H103.375L110.369 123.083C110.997 121.018 112.901 119.607 115.059 119.607H181.009L206.312 146.077Z" fill="black"/>
<path d="M234.566 174.508H256.134V178.429C256.134 180.595 254.379 182.351 252.213 182.351H234.566V174.508Z" fill="#D9D9D9"/>
<path d="M280.645 174.508H302.212V182.351H284.566C282.4 182.351 280.645 180.595 280.645 178.429V174.508Z" fill="#D9D9D9"/>
<path d="M281.137 193.131C281.137 192.589 280.698 192.15 280.156 192.15H258.589C258.047 192.15 257.608 192.589 257.608 193.131V199.993C257.608 200.535 258.047 200.974 258.589 200.974H280.156C280.698 200.974 281.137 200.535 281.137 199.993V193.131Z" fill="black"/>
<path d="M205.648 148.032C205.648 146.949 204.771 146.071 203.688 146.071H186.041C184.958 146.071 184.081 146.949 184.081 148.032V152.934C184.081 156.724 187.153 159.796 190.943 159.796H203.688C204.771 159.796 205.648 158.918 205.648 157.836V148.032Z" fill="#FBFBFB"/>
<ellipse cx="131.785" cy="204.747" rx="15.9213" ry="16.8422" fill="#191720"/>
<ellipse cx="131.783" cy="204.743" rx="5.64674" ry="5.97335" fill="#FCFCFC"/>
<ellipse cx="206.378" cy="204.747" rx="15.9213" ry="16.8422" fill="#191720"/>
<ellipse cx="206.385" cy="204.743" rx="5.64674" ry="5.97335" fill="#FCFCFC"/>
<path d="M357.246 75.5746C357.246 73.6371 358.817 72.0664 360.754 72.0664H392.328C394.266 72.0664 395.837 73.6371 395.837 75.5746V220.581H357.246V75.5746Z" fill="black"/>
<path d="M351.398 213.304C351.398 211.367 352.969 209.796 354.907 209.796H397.888C399.826 209.796 401.397 211.367 401.397 213.304V220.58H351.398V213.304Z" fill="#5E5D63"/>
<path d="M365.121 103.057L385.518 83.7539L377.705 98.9327H388.502L367.857 118.106L375.628 103.057H365.121Z" fill="#0AA5FF"/>
<rect x="367.461" y="131.699" width="17.5411" height="5.84703" fill="#5E5D63"/>
<rect x="367.461" y="138.716" width="17.5411" height="5.84703" fill="#5E5D63"/>
<rect x="367.461" y="145.732" width="17.5411" height="5.84703" fill="#0AA5FF"/>
<rect x="367.461" y="152.748" width="17.5411" height="5.84703" fill="#0AA5FF"/>
</g>
<defs>
<linearGradient id="paint0_linear_6_5561" x1="204.335" y1="53.6871" x2="162.647" y2="95.3755" gradientUnits="userSpaceOnUse">
<stop stop-color="#09A4FE"/>
<stop offset="1" stop-color="#09A4FE" stop-opacity="0"/>
</linearGradient>
<clipPath id="clip0_6_5561">
<rect width="464" height="250" fill="white"/>
</clipPath>
</defs>
</svg>
