<svg width="415" height="88" viewBox="0 0 415 88" fill="none" xmlns="http://www.w3.org/2000/svg">
<g clip-path="url(#clip0_6_5353)">
<path d="M118.314 0H17.8759L0 88H100.438C111.202 88 121.644 79.5663 123.758 69.1632L133.979 18.8414C136.093 8.43836 129.078 0.00460107 118.31 0.00460107L118.314 0ZM88.7299 23.3044L80.3515 64.6956C79.3843 69.4669 74.7322 73.3318 69.9558 73.3318H45.4519L57.3262 14.6682H81.8301C86.6065 14.6682 89.6925 18.5331 88.7299 23.3044Z" fill="#003592"/>
<path d="M269.395 0H221.138L186.072 39.0631L207.693 88H255.945L234.325 39.0631L269.395 0Z" fill="#EE7826"/>
<path d="M145.996 24.2432H176.492L163.314 87.9955H132.832L145.996 24.2432Z" fill="#9DA6A8"/>
<path d="M181.504 0L177.971 17.1022H147.475L151.007 0H181.504Z" fill="#9DA6A8"/>
<path d="M384.665 0H415.001L396.825 88H366.49L384.665 0Z" fill="#9DA6A8"/>
<path d="M348.876 24.1237H285.189C279.736 24.1237 275.033 27.9564 273.946 33.2845L265.572 74.2386C264.112 81.3472 269.547 87.9957 276.815 87.9957H340.503C345.956 87.9957 350.659 84.1631 351.746 78.835L354.04 67.6038H322.484L321.245 73.7094C320.821 75.8305 318.937 77.3719 316.763 77.3719H302.158C299.256 77.3719 297.096 74.7263 297.676 71.892L299.799 61.374H355.315L360.119 37.8763C361.58 30.7677 356.145 24.1191 348.876 24.1191V24.1237ZM328.025 40.2229L325.902 50.7409H301.955L304.451 38.4055C304.875 36.266 306.759 34.743 308.933 34.743H323.539C326.44 34.743 328.601 37.3886 328.02 40.2229H328.025Z" fill="#9DA6A8"/>
</g>
<defs>
<clipPath id="clip0_6_5353">
<rect width="415" height="88" fill="white"/>
</clipPath>
</defs>
</svg>
