<svg width="452" height="96" viewBox="0 0 452 96" fill="none" xmlns="http://www.w3.org/2000/svg">
<g clip-path="url(#clip0_6_5387)">
<path d="M128.863 0H19.4696L0 96H109.393C121.117 96 132.49 86.7995 134.792 75.4508L145.924 20.5542C148.227 9.20548 140.587 0.00501935 128.858 0.00501935L128.863 0ZM96.6407 25.423L87.5154 70.577C86.4619 75.7821 81.3951 79.9983 76.1928 79.9983H49.5043L62.4372 16.0017H89.1258C94.328 16.0017 97.6892 20.2179 96.6407 25.423Z" fill="#003592"/>
<path d="M293.415 0H240.856L202.664 42.6142L226.212 96H278.767L255.218 42.6142L293.415 0Z" fill="#EE7826"/>
<path d="M159.009 26.4453H192.225L177.872 95.9934H144.672L159.009 26.4453Z" fill="#9DA6A8"/>
<path d="M197.68 0L193.832 18.6569H160.617L164.465 0H197.68Z" fill="#9DA6A8"/>
<path d="M418.96 0H451.999L432.204 96H399.164L418.96 0Z" fill="#9DA6A8"/>
<path d="M379.983 26.3175H310.618C304.678 26.3175 299.556 30.4986 298.372 36.311L289.252 80.9882C287.661 88.7431 293.581 95.9961 301.497 95.9961H370.863C376.802 95.9961 381.924 91.815 383.108 86.0026L385.606 73.7503H351.237L349.888 80.411C349.426 82.7249 347.375 84.4064 345.007 84.4064H329.099C325.938 84.4064 323.586 81.5203 324.218 78.4284L326.53 66.9541H386.996L392.228 41.3203C393.819 33.5655 387.899 26.3125 379.983 26.3125V26.3175ZM357.272 43.8802L354.96 55.3544H328.878L331.597 41.8976C332.059 39.5636 334.111 37.9022 336.478 37.9022H352.386C355.547 37.9022 357.899 40.7883 357.267 43.8802H357.272Z" fill="#9DA6A8"/>
</g>
<defs>
<clipPath id="clip0_6_5387">
<rect width="452" height="96" fill="white"/>
</clipPath>
</defs>
</svg>
